<svg width="15" height="15" viewBox="0 0 15 15" fill="none" xmlns="http://www.w3.org/2000/svg">
<path d="M8.04199 13.7197C8.04199 13.9307 7.96289 14.1123 7.80469 14.2646C7.65234 14.4229 7.46777 14.502 7.25098 14.502C7.03418 14.502 6.84961 14.4229 6.69727 14.2646C6.54492 14.1123 6.46875 13.9307 6.46875 13.7197V0.782227C6.46875 0.571289 6.54492 0.389648 6.69727 0.237305C6.84961 0.0791016 7.03418 0 7.25098 0C7.46777 0 7.65234 0.0791016 7.80469 0.237305C7.96289 0.389648 8.04199 0.571289 8.04199 0.782227V13.7197ZM0.782227 8.0332C0.571289 8.0332 0.386719 7.95703 0.228516 7.80469C0.0761719 7.65234 0 7.46777 0 7.25098C0 7.03418 0.0761719 6.84961 0.228516 6.69727C0.386719 6.53906 0.571289 6.45996 0.782227 6.45996H13.7197C13.9307 6.45996 14.1123 6.53906 14.2646 6.69727C14.4229 6.84961 14.502 7.03418 14.502 7.25098C14.502 7.46777 14.4229 7.65234 14.2646 7.80469C14.1123 7.95703 13.9307 8.0332 13.7197 8.0332H0.782227Z" fill="#333333"/>
</svg>
