<svg width="20" height="20" viewBox="0 0 20 20" fill="none" xmlns="http://www.w3.org/2000/svg">
<rect x="0.5" y="0.5" width="19" height="19" rx="9.5" stroke="#333333"/>
<path d="M10.3555 14.082C10.3555 14.2227 10.3027 14.3438 10.1973 14.4453C10.0957 14.5508 9.97266 14.6035 9.82812 14.6035C9.68359 14.6035 9.56055 14.5508 9.45898 14.4453C9.35742 14.3438 9.30664 14.2227 9.30664 14.082V5.45703C9.30664 5.31641 9.35742 5.19531 9.45898 5.09375C9.56055 4.98828 9.68359 4.93555 9.82812 4.93555C9.97266 4.93555 10.0957 4.98828 10.1973 5.09375C10.3027 5.19531 10.3555 5.31641 10.3555 5.45703V14.082ZM5.51562 10.291C5.375 10.291 5.25195 10.2402 5.14648 10.1387C5.04492 10.0371 4.99414 9.91406 4.99414 9.76953C4.99414 9.625 5.04492 9.50195 5.14648 9.40039C5.25195 9.29492 5.375 9.24219 5.51562 9.24219H14.1406C14.2812 9.24219 14.4023 9.29492 14.5039 9.40039C14.6094 9.50195 14.6621 9.625 14.6621 9.76953C14.6621 9.91406 14.6094 10.0371 14.5039 10.1387C14.4023 10.2402 14.2812 10.291 14.1406 10.291H5.51562Z" fill="#333333"/>
</svg>
