<svg width="18" height="15" viewBox="0 0 18 15" fill="none" xmlns="http://www.w3.org/2000/svg">
<path d="M12.0059 14.9678C11.6191 14.9678 11.2646 14.8711 10.9424 14.6777C10.626 14.4902 10.3711 14.2354 10.1777 13.9131C9.98438 13.5967 9.8877 13.2451 9.8877 12.8584C9.8877 12.4717 9.98438 12.1201 10.1777 11.8037C10.3711 11.4814 10.626 11.2266 10.9424 11.0391C11.2646 10.8457 11.6191 10.749 12.0059 10.749C12.3926 10.749 12.7441 10.8457 13.0605 11.0391C13.3828 11.2266 13.6377 11.4814 13.8252 11.8037C14.0186 12.1201 14.1152 12.4717 14.1152 12.8584C14.1152 13.2451 14.0186 13.5967 13.8252 13.9131C13.6377 14.2354 13.3828 14.4902 13.0605 14.6777C12.7441 14.8711 12.3926 14.9678 12.0059 14.9678ZM12.0059 13.8867C12.293 13.8867 12.5361 13.7871 12.7354 13.5879C12.9346 13.3887 13.0342 13.1455 13.0342 12.8584C13.0342 12.5654 12.9346 12.3223 12.7354 12.1289C12.5361 11.9297 12.293 11.8301 12.0059 11.8301C11.7188 11.8301 11.4756 11.9297 11.2764 12.1289C11.0771 12.3223 10.9775 12.5654 10.9775 12.8584C10.9775 13.1455 11.0771 13.3887 11.2764 13.5879C11.4756 13.7871 11.7188 13.8867 12.0059 13.8867ZM10.6084 12.1465V13.5615H0.703125C0.509766 13.5615 0.342773 13.4941 0.202148 13.3594C0.0673828 13.2188 0 13.0518 0 12.8584C0 12.6592 0.0673828 12.4922 0.202148 12.3574C0.342773 12.2168 0.509766 12.1465 0.703125 12.1465H10.6084ZM17.0332 12.1465C17.2148 12.1465 17.373 12.2168 17.5078 12.3574C17.6426 12.4922 17.71 12.6592 17.71 12.8584C17.71 13.0518 17.6426 13.2188 17.5078 13.3594C17.373 13.4941 17.2148 13.5615 17.0332 13.5615H13.5352V12.1465H17.0332ZM5.80078 9.60645C5.41406 9.60645 5.05957 9.50977 4.7373 9.31641C4.4209 9.12305 4.16602 8.86816 3.97266 8.55176C3.78516 8.22949 3.69141 7.875 3.69141 7.48828C3.69141 7.10156 3.78516 6.75 3.97266 6.43359C4.16602 6.11133 4.4209 5.85645 4.7373 5.66895C5.05957 5.47559 5.41406 5.37891 5.80078 5.37891C6.1875 5.37891 6.53906 5.47559 6.85547 5.66895C7.17773 5.85645 7.43262 6.11133 7.62012 6.43359C7.81348 6.75 7.91016 7.10156 7.91016 7.48828C7.91016 7.875 7.81348 8.22949 7.62012 8.55176C7.43262 8.86816 7.17773 9.12305 6.85547 9.31641C6.53906 9.50977 6.1875 9.60645 5.80078 9.60645ZM5.80078 8.5166C6.09375 8.5166 6.33691 8.41699 6.53027 8.21777C6.72949 8.01855 6.8291 7.77539 6.8291 7.48828C6.8291 7.19531 6.72949 6.95215 6.53027 6.75879C6.33691 6.55957 6.09375 6.45996 5.80078 6.45996C5.51367 6.45996 5.27051 6.55957 5.07129 6.75879C4.87207 6.95215 4.77246 7.19531 4.77246 7.48828C4.77246 7.77539 4.87207 8.01855 5.07129 8.21777C5.27051 8.41699 5.51367 8.5166 5.80078 8.5166ZM0.667969 6.77637H4.28906V8.19141H0.667969C0.492188 8.19141 0.336914 8.12402 0.202148 7.98926C0.0673828 7.85449 0 7.6875 0 7.48828C0 7.28906 0.0673828 7.12207 0.202148 6.9873C0.336914 6.84668 0.492188 6.77637 0.667969 6.77637ZM16.998 6.77637C17.1973 6.77637 17.3643 6.84668 17.499 6.9873C17.6396 7.12207 17.71 7.28906 17.71 7.48828C17.71 7.6875 17.6396 7.85449 17.499 7.98926C17.3643 8.12402 17.1973 8.19141 16.998 8.19141H7.19824V6.77637H16.998ZM12.0059 4.22754C11.6191 4.22754 11.2646 4.13379 10.9424 3.94629C10.626 3.75293 10.3711 3.49805 10.1777 3.18164C9.98438 2.85937 9.8877 2.50488 9.8877 2.11816C9.8877 1.73145 9.98438 1.37988 10.1777 1.06348C10.3711 0.741211 10.626 0.483398 10.9424 0.290039C11.2646 0.0966797 11.6191 0 12.0059 0C12.3926 0 12.7441 0.0966797 13.0605 0.290039C13.3828 0.483398 13.6377 0.741211 13.8252 1.06348C14.0186 1.37988 14.1152 1.73145 14.1152 2.11816C14.1152 2.50488 14.0186 2.85937 13.8252 3.18164C13.6377 3.49805 13.3828 3.75293 13.0605 3.94629C12.7441 4.13379 12.3926 4.22754 12.0059 4.22754ZM12.0059 3.14648C12.293 3.14648 12.5361 3.04688 12.7354 2.84766C12.9346 2.64258 13.0342 2.39648 13.0342 2.10938C13.0342 1.82227 12.9346 1.5791 12.7354 1.37988C12.5361 1.18066 12.293 1.08105 12.0059 1.08105C11.7188 1.08105 11.4756 1.18066 11.2764 1.37988C11.0771 1.5791 10.9775 1.82227 10.9775 2.10938C10.9775 2.39648 11.0771 2.64258 11.2764 2.84766C11.4756 3.04688 11.7188 3.14648 12.0059 3.14648ZM10.6523 1.41504V2.83008H0.703125C0.509766 2.83008 0.342773 2.7627 0.202148 2.62793C0.0673828 2.4873 0 2.31738 0 2.11816C0 1.9248 0.0673828 1.76074 0.202148 1.62598C0.342773 1.48535 0.509766 1.41504 0.703125 1.41504H10.6523ZM17.0332 1.41504C17.2148 1.41504 17.373 1.48535 17.5078 1.62598C17.6426 1.76074 17.71 1.9248 17.71 2.11816C17.71 2.31738 17.6426 2.4873 17.5078 2.62793C17.373 2.7627 17.2148 2.83008 17.0332 2.83008H13.4121V1.41504H17.0332Z" fill="#333333"/>
</svg>
