<svg width="19" height="19" viewBox="0 0 19 19" fill="none" xmlns="http://www.w3.org/2000/svg">
<path d="M9.0791 18.1592C7.8252 18.1592 6.65039 17.9219 5.55469 17.4473C4.45898 16.9785 3.49512 16.3281 2.66309 15.4961C1.83105 14.6699 1.17773 13.709 0.703125 12.6133C0.234375 11.5117 0 10.334 0 9.08008C0 7.82617 0.234375 6.65137 0.703125 5.55566C1.17773 4.4541 1.83105 3.4873 2.66309 2.65527C3.49512 1.82324 4.45898 1.17285 5.55469 0.704102C6.65039 0.235352 7.8252 0.000976562 9.0791 0.000976562C10.333 0.000976562 11.5078 0.235352 12.6035 0.704102C13.7051 1.17285 14.6719 1.82324 15.5039 2.65527C16.3359 3.4873 16.9863 4.4541 17.4551 5.55566C17.9297 6.65137 18.167 7.82617 18.167 9.08008C18.167 10.334 17.9297 11.5117 17.4551 12.6133C16.9863 13.709 16.3359 14.6699 15.5039 15.4961C14.6719 16.3281 13.7051 16.9785 12.6035 17.4473C11.5078 17.9219 10.333 18.1592 9.0791 18.1592ZM9.0791 16.3662C10.0869 16.3662 11.0303 16.1758 11.9092 15.7949C12.7881 15.4199 13.5615 14.8984 14.2295 14.2305C14.9033 13.5625 15.4277 12.7891 15.8027 11.9102C16.1777 11.0312 16.3652 10.0879 16.3652 9.08008C16.3652 8.07227 16.1777 7.12891 15.8027 6.25C15.4277 5.36523 14.9033 4.5918 14.2295 3.92969C13.5615 3.26172 12.7881 2.74023 11.9092 2.36523C11.0303 1.98438 10.0869 1.79395 9.0791 1.79395C8.07715 1.79395 7.13379 1.98438 6.24902 2.36523C5.37012 2.74023 4.59668 3.26172 3.92871 3.92969C3.26074 4.5918 2.73633 5.36523 2.35547 6.25C1.98047 7.12891 1.79297 8.07227 1.79297 9.08008C1.79297 10.0879 1.98047 11.0312 2.35547 11.9102C2.73633 12.7891 3.26074 13.5625 3.92871 14.2305C4.59668 14.8984 5.37012 15.4199 6.24902 15.7949C7.13379 16.1758 8.07715 16.3662 9.0791 16.3662ZM9.0791 13.5713C8.85645 13.5713 8.66309 13.4922 8.49902 13.334C8.34082 13.1699 8.26172 12.9795 8.26172 12.7627V8.06055L8.34082 6.17969C8.3584 5.95703 8.4375 5.78125 8.57812 5.65234C8.72461 5.52344 8.8916 5.45898 9.0791 5.45898C9.27246 5.45898 9.44238 5.52344 9.58887 5.65234C9.74121 5.78125 9.82031 5.95703 9.82617 6.17969L9.90527 8.06055V12.7627C9.90527 12.9795 9.82324 13.1699 9.65918 13.334C9.50098 13.4922 9.30762 13.5713 9.0791 13.5713ZM9.0791 4.58887C9.19043 4.58887 9.2959 4.60937 9.39551 4.65039C9.49512 4.69141 9.59766 4.76465 9.70312 4.87012L12.6123 7.66504C12.6826 7.73535 12.7383 7.81445 12.7793 7.90234C12.8203 7.98438 12.8408 8.08105 12.8408 8.19238C12.8408 8.39746 12.7676 8.56738 12.6211 8.70215C12.4805 8.83105 12.3076 8.89551 12.1025 8.89551C12.0029 8.89551 11.9062 8.875 11.8125 8.83398C11.7188 8.79297 11.6338 8.73145 11.5576 8.64941L10.3184 7.33105L9.28125 6.14453H8.87695L7.83984 7.33105L6.60059 8.64941C6.53027 8.73145 6.44531 8.79297 6.3457 8.83398C6.24609 8.875 6.14648 8.89551 6.04688 8.89551C5.84766 8.89551 5.67773 8.83105 5.53711 8.70215C5.39648 8.56738 5.32617 8.39746 5.32617 8.19238C5.32617 8.08105 5.34375 7.98438 5.37891 7.90234C5.41992 7.81445 5.48145 7.73535 5.56348 7.66504L8.45508 4.87012C8.56641 4.76465 8.67188 4.69141 8.77148 4.65039C8.87109 4.60937 8.97363 4.58887 9.0791 4.58887Z" fill="black"/>
</svg>
