<svg width="6" height="11" viewBox="0 0 6 11" fill="none" xmlns="http://www.w3.org/2000/svg">
<path d="M0 5.18555C0 5.08398 0.0175781 4.99023 0.0527344 4.9043C0.0917969 4.81836 0.150391 4.73633 0.228516 4.6582L4.79297 0.193359C4.92578 0.0644531 5.08594 0 5.27344 0C5.40234 0 5.51758 0.03125 5.61914 0.09375C5.72461 0.152344 5.80859 0.232422 5.87109 0.333984C5.93359 0.435547 5.96484 0.550781 5.96484 0.679688C5.96484 0.863281 5.89258 1.02734 5.74805 1.17188L1.63477 5.18555L5.74805 9.19922C5.89258 9.34375 5.96484 9.50977 5.96484 9.69727C5.96484 9.82227 5.93359 9.93555 5.87109 10.0371C5.80859 10.1426 5.72461 10.2246 5.61914 10.2832C5.51758 10.3457 5.40234 10.377 5.27344 10.377C5.08594 10.377 4.92578 10.3105 4.79297 10.1777L0.228516 5.71289C0.150391 5.63477 0.0917969 5.55273 0.0527344 5.4668C0.0175781 5.38086 0 5.28711 0 5.18555Z" fill="black"/>
</svg>
