<svg width="17" height="14" viewBox="0 0 17 14" fill="none" xmlns="http://www.w3.org/2000/svg">
<path d="M14.1641 5.24219C14.401 5.24219 14.6016 5.16016 14.7656 4.99609C14.9342 4.82747 15.0186 4.62695 15.0186 4.39453C15.0186 4.15755 14.9342 3.95703 14.7656 3.79297C14.6016 3.62891 14.401 3.54688 14.1641 3.54688C13.9316 3.54688 13.7311 3.62891 13.5625 3.79297C13.3984 3.95703 13.3164 4.15755 13.3164 4.39453C13.3164 4.62695 13.3984 4.82747 13.5625 4.99609C13.7311 5.16016 13.9316 5.24219 14.1641 5.24219ZM2.14648 13.0352C1.43099 13.0352 0.893229 12.8574 0.533203 12.502C0.177734 12.151 0 11.6224 0 10.916V3.75879C0 3.05697 0.177734 2.5306 0.533203 2.17969C0.893229 1.82422 1.43099 1.64648 2.14648 1.64648H4.05371C4.32259 1.64648 4.52083 1.61458 4.64844 1.55078C4.77604 1.48242 4.91504 1.36393 5.06543 1.19531L5.6123 0.580078C5.78548 0.393229 5.97233 0.249674 6.17285 0.149414C6.37793 0.0491536 6.65592 -0.000976562 7.00684 -0.000976562H9.73438C10.0853 -0.000976562 10.3633 0.0491536 10.5684 0.149414C10.7734 0.249674 10.9603 0.393229 11.1289 0.580078L11.6758 1.19531C11.7806 1.30924 11.874 1.40039 11.9561 1.46875C12.0426 1.53255 12.1406 1.57812 12.25 1.60547C12.3594 1.63281 12.5052 1.64648 12.6875 1.64648H14.6426C15.3535 1.64648 15.889 1.82422 16.249 2.17969C16.609 2.5306 16.7891 3.05697 16.7891 3.75879V10.916C16.7891 11.6224 16.609 12.151 16.249 12.502C15.889 12.8574 15.3535 13.0352 14.6426 13.0352H2.14648ZM8.39453 11.0186C8.90951 11.0186 9.39258 10.9229 9.84375 10.7314C10.2949 10.54 10.6914 10.2734 11.0332 9.93164C11.375 9.58984 11.6416 9.19336 11.833 8.74219C12.0244 8.29102 12.1201 7.80339 12.1201 7.2793C12.1201 6.58659 11.9538 5.95768 11.6211 5.39258C11.2884 4.82747 10.8395 4.37858 10.2744 4.0459C9.70931 3.71322 9.08268 3.54688 8.39453 3.54688C7.875 3.54688 7.38965 3.64258 6.93848 3.83398C6.4873 4.02539 6.09082 4.29199 5.74902 4.63379C5.41178 4.97559 5.14518 5.37207 4.94922 5.82324C4.75781 6.27441 4.66211 6.75977 4.66211 7.2793C4.66211 7.80339 4.75781 8.29102 4.94922 8.74219C5.14518 9.19336 5.41178 9.58984 5.74902 9.93164C6.09082 10.2734 6.4873 10.54 6.93848 10.7314C7.38965 10.9229 7.875 11.0186 8.39453 11.0186ZM8.39453 9.97949C7.89779 9.97949 7.44434 9.85872 7.03418 9.61719C6.62858 9.37565 6.30273 9.05208 6.05664 8.64648C5.8151 8.23633 5.69434 7.7806 5.69434 7.2793C5.69434 6.78255 5.8151 6.33138 6.05664 5.92578C6.30273 5.51562 6.62858 5.18978 7.03418 4.94824C7.44434 4.70215 7.89779 4.5791 8.39453 4.5791C8.89128 4.5791 9.34245 4.70215 9.74805 4.94824C10.1582 5.18978 10.484 5.51562 10.7256 5.92578C10.9671 6.33138 11.0879 6.78255 11.0879 7.2793C11.0879 7.7806 10.9671 8.23633 10.7256 8.64648C10.484 9.05208 10.1582 9.37565 9.74805 9.61719C9.34245 9.85872 8.89128 9.97949 8.39453 9.97949Z" fill="#333333"/>
</svg>
