<svg width="9" height="16" viewBox="0 0 9 16" fill="none" xmlns="http://www.w3.org/2000/svg">
<path d="M0 7.62891C0 7.51758 0.0205078 7.41504 0.0615234 7.32129C0.102539 7.22168 0.164062 7.13086 0.246094 7.04883L7.21582 0.228516C7.37402 0.0761719 7.56445 0 7.78711 0C7.93945 0 8.07422 0.0351562 8.19141 0.105469C8.31445 0.175781 8.41113 0.272461 8.48145 0.395508C8.55762 0.512695 8.5957 0.647461 8.5957 0.799805C8.5957 1.0166 8.5166 1.20703 8.3584 1.37109L1.95996 7.62891L8.3584 13.8867C8.5166 14.0508 8.5957 14.2412 8.5957 14.458C8.5957 14.6104 8.55762 14.7451 8.48145 14.8623C8.41113 14.9854 8.31445 15.082 8.19141 15.1523C8.07422 15.2227 7.93945 15.2578 7.78711 15.2578C7.56445 15.2578 7.37402 15.1787 7.21582 15.0205L0.246094 8.20898C0.164062 8.12695 0.102539 8.03906 0.0615234 7.94531C0.0205078 7.8457 0 7.74023 0 7.62891Z" fill="#CCCCCC"/>
</svg>
