<svg width="9" height="5" viewBox="0 0 9 5" fill="none" xmlns="http://www.w3.org/2000/svg">
<path d="M4.32617 4.9707C4.16341 4.9707 4.0153 4.9056 3.88184 4.77539L0.166016 0.97168C0.110677 0.919596 0.0683594 0.861003 0.0390625 0.795898C0.0130208 0.727539 0 0.654297 0 0.576172C0 0.46875 0.0244141 0.371094 0.0732422 0.283203C0.125326 0.195312 0.193685 0.126953 0.27832 0.078125C0.362956 0.0260417 0.458984 0 0.566406 0C0.722656 0 0.859375 0.0585938 0.976562 0.175781L4.56543 3.85254H4.0918L7.67578 0.175781C7.79297 0.0585938 7.92969 0 8.08594 0C8.19336 0 8.28939 0.0260417 8.37402 0.078125C8.45866 0.126953 8.52539 0.195312 8.57422 0.283203C8.6263 0.371094 8.65234 0.46875 8.65234 0.576172C8.65234 0.729167 8.59701 0.861003 8.48633 0.97168L4.77051 4.77539C4.70866 4.84049 4.6403 4.88932 4.56543 4.92188C4.49056 4.95443 4.41081 4.9707 4.32617 4.9707Z" fill="black"/>
</svg>
