<svg width="6" height="11" viewBox="0 0 6 11" fill="none" xmlns="http://www.w3.org/2000/svg">
<path d="M5.73047 5.08594C5.73047 5.16016 5.71484 5.23047 5.68359 5.29688C5.65625 5.35938 5.61523 5.41797 5.56055 5.47266L0.919922 10.0137C0.814453 10.1191 0.685547 10.1719 0.533203 10.1719C0.435547 10.1719 0.345703 10.1484 0.263672 10.1016C0.181641 10.0547 0.117188 9.99023 0.0703125 9.9082C0.0234375 9.83008 0 9.74023 0 9.63867C0 9.49414 0.0507812 9.36719 0.152344 9.25781L4.41797 5.08594L0.152344 0.914062C0.0507812 0.804687 0 0.677734 0 0.533203C0 0.431641 0.0234375 0.341797 0.0703125 0.263672C0.117188 0.181641 0.181641 0.117188 0.263672 0.0703125C0.345703 0.0234375 0.435547 0 0.533203 0C0.685547 0 0.814453 0.0507813 0.919922 0.152344L5.56055 4.69922C5.61523 4.75391 5.65625 4.81445 5.68359 4.88086C5.71484 4.94336 5.73047 5.01172 5.73047 5.08594Z" fill="white"/>
</svg>
