<svg width="9" height="5" viewBox="0 0 9 5" fill="none" xmlns="http://www.w3.org/2000/svg">
<path d="M0.166016 4.00391L3.88184 0.200195C4.00879 0.0667318 4.1569 0 4.32617 0C4.41081 0.00325521 4.49056 0.0227865 4.56543 0.0585938C4.6403 0.0911458 4.70866 0.138346 4.77051 0.200195L8.48633 4.00391C8.59701 4.11133 8.65234 4.24479 8.65234 4.4043C8.65234 4.51172 8.6263 4.60775 8.57422 4.69238C8.52539 4.77702 8.45866 4.84538 8.37402 4.89746C8.28939 4.94954 8.19336 4.97559 8.08594 4.97559C7.92318 4.97559 7.78646 4.91699 7.67578 4.7998L4.0918 1.12793H4.56543L0.976562 4.7998C0.869141 4.91699 0.732422 4.97559 0.566406 4.97559C0.458984 4.97559 0.362956 4.94954 0.27832 4.89746C0.193685 4.84538 0.125326 4.77702 0.0732422 4.69238C0.0244141 4.60775 0 4.51172 0 4.4043C0 4.32617 0.0130208 4.25293 0.0390625 4.18457C0.0683594 4.11621 0.110677 4.05599 0.166016 4.00391Z" fill="black"/>
</svg>
