<svg width="18" height="18" viewBox="0 0 18 18" fill="none" xmlns="http://www.w3.org/2000/svg">
<path d="M8.96484 17.9297C7.72852 17.9297 6.56836 17.6953 5.48438 17.2266C4.40039 16.7637 3.44824 16.1221 2.62793 15.3018C1.80762 14.4756 1.16309 13.5234 0.694336 12.4453C0.231445 11.3613 0 10.2012 0 8.96484C0 7.72852 0.231445 6.56836 0.694336 5.48438C1.16309 4.40039 1.80762 3.44824 2.62793 2.62793C3.44824 1.80762 4.40039 1.16602 5.48438 0.703125C6.56836 0.234375 7.72852 0 8.96484 0C10.2012 0 11.3613 0.234375 12.4453 0.703125C13.5293 1.16602 14.4814 1.80762 15.3018 2.62793C16.1221 3.44824 16.7637 4.40039 17.2266 5.48438C17.6953 6.56836 17.9297 7.72852 17.9297 8.96484C17.9297 10.2012 17.6953 11.3613 17.2266 12.4453C16.7637 13.5234 16.1221 14.4756 15.3018 15.3018C14.4814 16.1221 13.5293 16.7637 12.4453 17.2266C11.3613 17.6953 10.2012 17.9297 8.96484 17.9297ZM6.01172 12.6562C6.22266 12.6562 6.40137 12.5859 6.54785 12.4453L8.97363 10.002L11.4082 12.4453C11.543 12.5859 11.7158 12.6562 11.9268 12.6562C12.1318 12.6562 12.3047 12.5859 12.4453 12.4453C12.5859 12.2988 12.6562 12.126 12.6562 11.9268C12.6562 11.71 12.5859 11.5371 12.4453 11.4082L10.002 8.97363L12.4541 6.53027C12.5947 6.38379 12.665 6.21094 12.665 6.01172C12.665 5.8125 12.5947 5.64258 12.4541 5.50195C12.3135 5.36133 12.1436 5.29102 11.9443 5.29102C11.751 5.29102 11.584 5.36133 11.4434 5.50195L8.97363 7.9541L6.52148 5.51074C6.375 5.37598 6.20508 5.30859 6.01172 5.30859C5.8125 5.30859 5.64258 5.37891 5.50195 5.51953C5.36133 5.6543 5.29102 5.82422 5.29102 6.0293C5.29102 6.22266 5.36133 6.39258 5.50195 6.53906L7.94531 8.97363L5.50195 11.417C5.36133 11.5576 5.29102 11.7275 5.29102 11.9268C5.29102 12.126 5.36133 12.2988 5.50195 12.4453C5.64258 12.5859 5.8125 12.6562 6.01172 12.6562Z" fill="white"/>
</svg>
