<svg width="10" height="10" viewBox="0 0 10 10" fill="none" xmlns="http://www.w3.org/2000/svg">
<path d="M8.41406 0.169922C8.48438 0.0996094 8.5625 0.0546875 8.64844 0.0351562C8.73828 0.0117188 8.82812 0.0117188 8.91797 0.0351562C9.00781 0.0546875 9.08789 0.0996094 9.1582 0.169922C9.22461 0.236328 9.26953 0.314453 9.29297 0.404297C9.31641 0.494141 9.31641 0.583984 9.29297 0.673828C9.26953 0.763672 9.22461 0.841797 9.1582 0.908203L0.914062 9.15234C0.847656 9.21875 0.769531 9.26367 0.679688 9.28711C0.589844 9.31055 0.5 9.31055 0.410156 9.28711C0.320312 9.26367 0.240234 9.21875 0.169922 9.15234C0.0996094 9.08594 0.0527344 9.00781 0.0292969 8.91797C0.00976562 8.82812 0.0117188 8.73828 0.0351562 8.64844C0.0585938 8.55859 0.103516 8.48047 0.169922 8.41406L8.41406 0.169922ZM9.1582 8.41406C9.22461 8.48047 9.26758 8.55859 9.28711 8.64844C9.31055 8.73828 9.31055 8.82812 9.28711 8.91797C9.26758 9.00781 9.22461 9.08594 9.1582 9.15234C9.0918 9.22266 9.01172 9.26758 8.91797 9.28711C8.82812 9.31055 8.73828 9.31055 8.64844 9.28711C8.55859 9.26367 8.48047 9.21875 8.41406 9.15234L0.169922 0.908203C0.103516 0.841797 0.0585938 0.763672 0.0351562 0.673828C0.015625 0.583984 0.015625 0.494141 0.0351562 0.404297C0.0585938 0.314453 0.103516 0.236328 0.169922 0.169922C0.236328 0.0996094 0.314453 0.0546875 0.404297 0.0351562C0.494141 0.0117188 0.583984 0.0117188 0.673828 0.0351562C0.767578 0.0546875 0.847656 0.0996094 0.914062 0.169922L9.1582 8.41406Z" fill="white"/>
</svg>
