<svg width="12" height="12" viewBox="0 0 12 12" fill="none" xmlns="http://www.w3.org/2000/svg">
<path d="M6.49414 10.6836C6.49414 10.8887 6.41895 11.0664 6.26855 11.2168C6.11816 11.3672 5.93587 11.4424 5.72168 11.4424C5.51204 11.4424 5.33203 11.3672 5.18164 11.2168C5.03125 11.0664 4.95605 10.8887 4.95605 10.6836V0.764648C4.95605 0.555013 5.03125 0.375 5.18164 0.224609C5.33203 0.0742188 5.51204 -0.000976562 5.72168 -0.000976562C5.93587 -0.000976562 6.11816 0.0742188 6.26855 0.224609C6.41895 0.375 6.49414 0.555013 6.49414 0.764648V10.6836ZM0.765625 6.48633C0.55599 6.48633 0.375977 6.41341 0.225586 6.26758C0.0751953 6.11719 0 5.9349 0 5.7207C0 5.51107 0.0751953 5.33105 0.225586 5.18066C0.375977 5.02572 0.55599 4.94824 0.765625 4.94824H10.6777C10.8874 4.94824 11.0674 5.02572 11.2178 5.18066C11.3682 5.33105 11.4434 5.51107 11.4434 5.7207C11.4434 5.9349 11.3682 6.11719 11.2178 6.26758C11.0674 6.41341 10.8874 6.48633 10.6777 6.48633H0.765625Z" fill="black"/>
</svg>
