<svg width="16" height="14" viewBox="0 0 16 14" fill="none" xmlns="http://www.w3.org/2000/svg">
<path d="M7.05282 1.9903C7.44392 1.9903 7.8235 2.01233 8.19159 2.05601C7.86948 2.42428 7.74929 2.84115 7.71882 3.18393C7.50183 3.16741 7.27985 3.15875 7.05282 3.15875C6.18606 3.15875 5.39252 3.27921 4.6722 3.52012C3.95188 3.75702 3.32852 4.0923 2.80213 4.52595C2.27574 4.9596 1.86809 5.47155 1.57917 6.06179C1.2942 6.65204 1.15172 7.29448 1.15172 7.98913C1.15172 8.44687 1.21307 8.88253 1.33576 9.2961C1.46241 9.70967 1.64447 10.0891 1.88194 10.4344C2.07192 10.7235 2.21242 10.9926 2.30345 11.2415C2.39448 11.4905 2.43999 11.7294 2.43999 11.9582C2.43999 12.0907 2.42218 12.2092 2.38656 12.3136C2.3549 12.418 2.31532 12.5204 2.26783 12.6208C2.39843 12.5886 2.52508 12.5445 2.64778 12.4882C2.77443 12.432 2.89118 12.3698 2.99804 12.3015C3.18406 12.1971 3.3582 12.1369 3.52047 12.1208C3.6867 12.1048 3.86876 12.1409 4.06665 12.2293C4.4941 12.426 4.95716 12.5766 5.45585 12.681C5.95849 12.7814 6.49081 12.8316 7.05282 12.8316C7.91958 12.8316 8.71313 12.7111 9.43345 12.4702C10.1577 12.2293 10.7831 11.892 11.3095 11.4583C11.8358 11.0247 12.2415 10.5127 12.5265 9.92248C12.7558 9.44751 12.8913 8.9373 12.9361 8.39212C13.3092 8.34306 13.6369 8.1864 13.8979 7.97106L13.8989 7.97215C13.9176 7.95704 13.9355 7.94128 13.9535 7.92561C13.9571 7.92238 13.9606 7.91902 13.9642 7.91576C14.015 7.87071 14.0622 7.82265 14.1073 7.7734C14.1097 7.84483 14.1116 7.91672 14.1116 7.98913C14.1116 8.86044 13.9355 9.66149 13.5832 10.3923C13.2349 11.1231 12.7442 11.7595 12.1109 12.3015C11.4777 12.8396 10.7316 13.2572 9.87277 13.5543C9.01392 13.8514 8.07394 14 7.05282 14C5.75466 14 4.58711 13.7691 3.55016 13.3074C3.23749 13.5242 2.88327 13.6928 2.48749 13.8133C2.0917 13.9378 1.70186 14 1.31795 14C1.10819 14 0.945917 13.9418 0.831141 13.8253C0.720322 13.7089 0.666892 13.5684 0.670849 13.4037C0.678765 13.2431 0.7599 13.0946 0.914255 12.958C1.05674 12.8255 1.15568 12.691 1.21109 12.5545C1.27046 12.418 1.30014 12.2654 1.30014 12.0968C1.30014 11.9482 1.26848 11.7936 1.20515 11.633C1.14183 11.4684 1.0409 11.2776 0.902381 11.0608C0.720322 10.7838 0.560031 10.4866 0.421507 10.1694C0.286941 9.85222 0.182059 9.51293 0.106861 9.15155C0.0356203 8.78616 0 8.39869 0 7.98913C0 7.11781 0.174144 6.31676 0.522431 5.58598C0.874677 4.85119 1.36742 4.21477 2.00067 3.67672C2.63392 3.13867 3.37997 2.72309 4.23882 2.42997C5.09766 2.13686 6.03567 1.9903 7.05282 1.9903Z" fill="#333333"/>
<path d="M12.6927 0C12.8404 4.47267e-05 12.9312 0.089613 12.9653 0.268294C13.0448 0.781192 13.1385 1.20482 13.2464 1.53913C13.3544 1.86772 13.5026 2.13292 13.6901 2.3347C13.8776 2.53069 14.1332 2.68645 14.457 2.80175C14.7866 2.91129 15.2157 3.00386 15.7442 3.07881C15.9147 3.10187 16 3.19987 16 3.37283C16 3.53419 15.9146 3.62629 15.7442 3.64934C15.21 3.73005 14.7809 3.82507 14.457 3.93461C14.1331 4.04415 13.8776 4.19743 13.6901 4.39345C13.5083 4.58942 13.366 4.85721 13.2637 5.19723C13.1614 5.53162 13.0619 5.95849 12.9653 6.47738C12.9539 6.5523 12.9201 6.61304 12.8633 6.65916C12.8362 6.68352 12.8071 6.70023 12.7769 6.71172L12.7758 6.71282L12.7753 6.71227C12.7488 6.72212 12.7216 6.72814 12.6927 6.72815C12.6076 6.72815 12.5393 6.70517 12.4882 6.65916C12.437 6.61304 12.4086 6.54933 12.4029 6.46861C12.3176 5.94977 12.221 5.52584 12.1131 5.19723C12.0108 4.86292 11.8626 4.59765 11.6694 4.40166C11.6438 4.37405 11.6167 4.3475 11.5885 4.32172C11.4105 4.15922 11.182 4.03291 10.9025 3.94337C10.5786 3.83384 10.1553 3.73581 9.6326 3.64934C9.49316 3.62652 9.40963 3.56382 9.38056 3.46154C9.37804 3.45304 9.37583 3.44431 9.37408 3.43525C9.37319 3.43038 9.37205 3.4255 9.37138 3.42047C9.36924 3.40535 9.36815 3.38948 9.36814 3.37283C9.36814 3.3306 9.37329 3.2928 9.3838 3.25949C9.38481 3.25628 9.38646 3.25332 9.38757 3.25019C9.3916 3.23884 9.39629 3.22813 9.40161 3.21788C9.40495 3.21143 9.40855 3.20528 9.4124 3.19926C9.417 3.19208 9.42165 3.18503 9.42697 3.17846C9.43102 3.17346 9.43546 3.16886 9.43992 3.16422C9.44693 3.15695 9.45456 3.15036 9.46259 3.14396C9.4674 3.14014 9.47199 3.13598 9.47716 3.13247C9.48449 3.12749 9.49231 3.12312 9.50037 3.11878C9.50688 3.11528 9.51336 3.11147 9.52034 3.10837C9.53587 3.1015 9.55262 3.09571 9.57053 3.09085L9.6326 3.07881C9.75901 3.06088 9.8793 3.04132 9.99366 3.02131C10.219 2.9821 10.4206 2.93789 10.5992 2.891C10.6761 2.87072 10.749 2.85076 10.8172 2.82913C10.8462 2.81996 10.8751 2.81118 10.9025 2.80175C11.2264 2.68645 11.4819 2.53071 11.6694 2.3347C11.857 2.13868 12.0021 1.87651 12.1044 1.54789C12.2067 1.21353 12.3063 0.784097 12.4029 0.259533C12.4313 0.0865729 12.5279 0 12.6927 0Z" fill="#333333"/>
</svg>
