<svg width="15" height="14" viewBox="0 0 15 14" fill="none" xmlns="http://www.w3.org/2000/svg">
<path d="M0.177734 8.50488C0.0592448 8.37728 0 8.23145 0 8.06738C0 7.89876 0.0615234 7.75065 0.18457 7.62305L1.3877 6.41992C2.59993 5.20768 3.64583 4.18457 4.52539 3.35059C5.40495 2.5166 6.15462 1.85124 6.77441 1.35449C7.39421 0.85319 7.92285 0.502279 8.36035 0.301758C8.79785 0.101237 9.17839 0.0328776 9.50195 0.0966797C9.82552 0.160482 10.1286 0.333659 10.4111 0.616211C10.6982 0.90332 10.8555 1.22461 10.8828 1.58008C10.9102 1.93099 10.8122 2.33659 10.5889 2.79688C10.3656 3.25716 10.0238 3.79264 9.56348 4.40332C9.10319 5.00944 8.52897 5.70898 7.84082 6.50195C7.0752 7.38151 6.47819 8.11296 6.0498 8.69629C5.62142 9.27507 5.3457 9.73535 5.22266 10.0771C5.10417 10.4144 5.1224 10.6582 5.27734 10.8086C5.40495 10.9408 5.60319 10.9567 5.87207 10.8564C6.14551 10.7562 6.50553 10.5306 6.95215 10.1797C7.40332 9.82422 7.96387 9.33203 8.63379 8.70312C9.37663 7.99674 10.026 7.44987 10.582 7.0625C11.138 6.67057 11.6165 6.44727 12.0176 6.39258C12.4232 6.33333 12.7718 6.45182 13.0635 6.74805C13.2822 6.96224 13.3984 7.21517 13.4121 7.50684C13.4258 7.79395 13.3483 8.13346 13.1797 8.52539C13.0156 8.91732 12.7718 9.37988 12.4482 9.91309C12.2386 10.264 12.0632 10.5579 11.9219 10.7949C11.7806 11.0273 11.6826 11.2074 11.6279 11.335C11.5778 11.458 11.5755 11.5423 11.6211 11.5879C11.6621 11.6289 11.7396 11.6198 11.8535 11.5605C11.9674 11.4967 12.1224 11.3851 12.3184 11.2256C12.5189 11.0615 12.765 10.8451 13.0566 10.5762C13.1842 10.4531 13.3301 10.3916 13.4941 10.3916C13.6628 10.3916 13.8086 10.4508 13.9316 10.5693C14.0592 10.6969 14.1185 10.8473 14.1094 11.0205C14.1048 11.1937 14.0273 11.3532 13.877 11.499C13.2161 12.1735 12.6237 12.5996 12.0996 12.7773C11.5755 12.9551 11.1494 12.8799 10.8213 12.5518C10.6071 12.3421 10.4886 12.1051 10.4658 11.8408C10.443 11.5765 10.4818 11.3008 10.582 11.0137C10.6823 10.722 10.8145 10.4258 10.9785 10.125C11.1426 9.82422 11.3066 9.53255 11.4707 9.25C11.7305 8.80339 11.9401 8.44792 12.0996 8.18359C12.2637 7.91471 12.2865 7.71875 12.168 7.5957C12.0996 7.5319 11.9902 7.53418 11.8398 7.60254C11.694 7.66634 11.5072 7.78939 11.2793 7.97168C11.056 8.15397 10.7962 8.38411 10.5 8.66211C10.2083 8.93555 9.88021 9.24772 9.51562 9.59863C9.16016 9.94499 8.79557 10.2799 8.42188 10.6035C8.04818 10.9271 7.67676 11.2119 7.30762 11.458C6.93848 11.7041 6.58073 11.891 6.23438 12.0186C5.88802 12.1462 5.5599 12.1872 5.25 12.1416C4.9401 12.1006 4.65527 11.9525 4.39551 11.6973C4.10384 11.4056 3.94206 11.082 3.91016 10.7266C3.88281 10.3665 3.95117 9.986 4.11523 9.58496C4.2793 9.17936 4.50716 8.76237 4.79883 8.33398C5.09505 7.90104 5.42546 7.46354 5.79004 7.02148C6.15918 6.57487 6.5306 6.13281 6.9043 5.69531C7.36003 5.15755 7.77702 4.66309 8.15527 4.21191C8.53353 3.75618 8.84798 3.34831 9.09863 2.98828C9.35384 2.62826 9.52246 2.32292 9.60449 2.07227C9.69108 1.82161 9.66829 1.63021 9.53613 1.49805C9.3903 1.34766 9.18294 1.31576 8.91406 1.40234C8.64518 1.48438 8.31022 1.6735 7.90918 1.96973C7.50814 2.26595 7.03418 2.66699 6.4873 3.17285C5.94499 3.67415 5.32292 4.27116 4.62109 4.96387C3.91927 5.65202 3.13314 6.43132 2.2627 7.30176L1.05957 8.50488C0.936523 8.62793 0.79069 8.69173 0.62207 8.69629C0.453451 8.69629 0.305339 8.63249 0.177734 8.50488Z" fill="black"/>
</svg>
