<svg width="16" height="19" viewBox="0 0 16 19" fill="none" xmlns="http://www.w3.org/2000/svg">
<path d="M3.67383 18.792C2.49609 18.792 1.58789 18.4727 0.949219 17.834C0.316406 17.2012 0 16.2959 0 15.1182V8.35059C0 7.17285 0.316406 6.26758 0.949219 5.63477C1.58789 4.99609 2.49609 4.67676 3.67383 4.67676H5.44922V6.0918H3.67383C2.95312 6.0918 2.39648 6.28809 2.00391 6.68066C1.61133 7.07324 1.41504 7.62988 1.41504 8.35059V15.1182C1.41504 15.8389 1.61133 16.3955 2.00391 16.7881C2.39648 17.1807 2.95312 17.377 3.67383 17.377H11.918C12.6445 17.377 13.2041 17.1807 13.5967 16.7881C13.9893 16.3955 14.1855 15.8389 14.1855 15.1182V8.35059C14.1855 7.62988 13.9893 7.07324 13.5967 6.68066C13.2041 6.28809 12.6445 6.0918 11.918 6.0918H10.1426V4.67676H11.918C13.1016 4.67676 14.0098 4.99609 14.6426 5.63477C15.2812 6.26758 15.6006 7.17285 15.6006 8.35059V15.1182C15.6006 16.2959 15.2812 17.2012 14.6426 17.834C14.0098 18.4727 13.1016 18.792 11.918 18.792H3.67383ZM7.80469 0.000976562C7.99219 0.000976562 8.15332 0.0683594 8.28809 0.203125C8.42871 0.337891 8.49902 0.496094 8.49902 0.677734V9.625L8.39355 11.9893C8.38184 12.1533 8.32031 12.2939 8.20898 12.4111C8.09766 12.5225 7.96289 12.5781 7.80469 12.5781C7.64062 12.5781 7.50293 12.5225 7.3916 12.4111C7.28027 12.2939 7.21875 12.1533 7.20703 11.9893L7.10156 9.625V0.677734C7.10156 0.496094 7.16895 0.337891 7.30371 0.203125C7.44434 0.0683594 7.61133 0.000976562 7.80469 0.000976562ZM4.81641 8.75488C5.01562 8.75488 5.17676 8.8252 5.2998 8.96582L6.66211 10.416L7.80469 11.6289L8.93848 10.416L10.3008 8.96582C10.418 8.8252 10.5762 8.75488 10.7754 8.75488C10.957 8.75488 11.1094 8.81348 11.2324 8.93066C11.3555 9.04785 11.417 9.19434 11.417 9.37012C11.417 9.54004 11.3467 9.69531 11.2061 9.83594L8.30566 12.6309C8.21777 12.7188 8.13281 12.7803 8.05078 12.8154C7.97461 12.8506 7.89258 12.8682 7.80469 12.8682C7.71094 12.8682 7.62305 12.8506 7.54102 12.8154C7.46484 12.7803 7.38281 12.7188 7.29492 12.6309L4.39453 9.83594C4.25391 9.69531 4.18359 9.54004 4.18359 9.37012C4.18359 9.19434 4.24219 9.04785 4.35938 8.93066C4.48242 8.81348 4.63477 8.75488 4.81641 8.75488Z" fill="#CCCCCC"/>
</svg>
