<svg width="15" height="11" viewBox="0 0 15 11" fill="none" xmlns="http://www.w3.org/2000/svg">
<path d="M14.25 0C14.6642 0 15 0.335786 15 0.75C15 1.16421 14.6642 1.5 14.25 1.5H0.75C0.335786 1.5 0 1.16421 0 0.75C0 0.335786 0.335786 0 0.75 0H14.25Z" fill="black"/>
<path d="M14.25 4.5C14.6642 4.5 15 4.83579 15 5.25C15 5.66421 14.6642 6 14.25 6H0.75C0.335786 6 0 5.66421 0 5.25C0 4.83579 0.335786 4.5 0.75 4.5H14.25Z" fill="black"/>
<path d="M14.25 9C14.6642 9 15 9.33579 15 9.75C15 10.1642 14.6642 10.5 14.25 10.5H0.75C0.335786 10.5 0 10.1642 0 9.75C0 9.33579 0.335786 9 0.75 9H14.25Z" fill="black"/>
</svg>
