<svg width="17" height="14" viewBox="0 0 17 14" fill="none" xmlns="http://www.w3.org/2000/svg">
<path d="M3.32227 13.9482L4.7373 12.5332H16.0049C16.1982 12.5332 16.3623 12.6035 16.4971 12.7441C16.6377 12.8848 16.708 13.0518 16.708 13.2451C16.708 13.4385 16.6377 13.6025 16.4971 13.7373C16.3623 13.8779 16.1982 13.9482 16.0049 13.9482H3.32227ZM2.44336 13.1396L0.413086 13.9219C0.307617 13.9629 0.210938 13.9365 0.123047 13.8428C0.0410156 13.7549 0.0205078 13.6582 0.0615234 13.5527L0.896484 11.5928L10.4941 2.0127L12.0322 3.55957L2.44336 13.1396ZM12.8057 2.80371L11.25 1.25684L12.1377 0.37793C12.3604 0.161133 12.5859 0.0439453 12.8145 0.0263672C13.0488 0.00878906 13.2656 0.0996094 13.4648 0.298828L13.7637 0.597656C13.9688 0.802734 14.0654 1.01953 14.0537 1.24805C14.042 1.47656 13.9219 1.70508 13.6934 1.93359L12.8057 2.80371Z" fill="#333333"/>
</svg>
