<svg width="23" height="22" viewBox="0 0 23 22" fill="none" xmlns="http://www.w3.org/2000/svg">
<path d="M6.93457 9.63281C6.78809 9.63281 6.66504 9.58594 6.56543 9.49219C6.46582 9.39258 6.41602 9.2666 6.41602 9.11426L6.40723 8.12988L5.72168 8.83301C5.61621 8.94434 5.49023 8.99707 5.34375 8.99121C5.20312 8.98535 5.08008 8.93262 4.97461 8.83301C4.875 8.72754 4.82227 8.60449 4.81641 8.46387C4.81641 8.31738 4.86914 8.19141 4.97461 8.08594L5.67773 7.40039H4.69336C4.54688 7.40039 4.4209 7.35059 4.31543 7.25098C4.21582 7.14551 4.16602 7.01953 4.16602 6.87305C4.16602 6.73242 4.21582 6.6123 4.31543 6.5127C4.4209 6.40723 4.54688 6.35449 4.69336 6.35449H5.67773L4.96582 5.66895C4.86621 5.56348 4.81641 5.4375 4.81641 5.29102C4.82227 5.14453 4.87207 5.01855 4.96582 4.91309C5.07715 4.81348 5.20312 4.76367 5.34375 4.76367C5.49023 4.76367 5.61621 4.81348 5.72168 4.91309L6.41602 5.60742L6.40723 4.64062C6.40723 4.48828 6.45703 4.3623 6.55664 4.2627C6.66211 4.16309 6.78516 4.11328 6.92578 4.11328C7.07812 4.11328 7.2041 4.16309 7.30371 4.2627C7.40332 4.3623 7.45312 4.48828 7.45312 4.64062L7.46191 5.60742L8.13867 4.91309C8.24414 4.80762 8.37012 4.75781 8.5166 4.76367C8.66309 4.76953 8.78906 4.81934 8.89453 4.91309C8.99414 5.01855 9.04395 5.14453 9.04395 5.29102C9.0498 5.4375 9 5.56348 8.89453 5.66895L8.19141 6.35449H9.17578C9.32227 6.35449 9.44531 6.40723 9.54492 6.5127C9.65039 6.6123 9.70312 6.73242 9.70312 6.87305C9.70312 7.01953 9.65039 7.14551 9.54492 7.25098C9.44531 7.35059 9.32227 7.40039 9.17578 7.40039H8.19141L8.90332 8.08594C9.00293 8.19141 9.0498 8.31738 9.04395 8.46387C9.04395 8.61035 8.99707 8.7334 8.90332 8.83301C8.79785 8.93848 8.67188 8.99121 8.52539 8.99121C8.37891 8.99121 8.25586 8.93848 8.15625 8.83301L7.45312 8.12988L7.46191 9.11426C7.46191 9.2666 7.40918 9.39258 7.30371 9.49219C7.2041 9.58594 7.08105 9.63281 6.93457 9.63281ZM6.94336 3.07617C6.78516 3.07617 6.64746 3.02051 6.53027 2.90918C6.41895 2.79199 6.36328 2.6543 6.36328 2.49609V0.571289C6.36328 0.413086 6.41895 0.27832 6.53027 0.166992C6.64746 0.0556641 6.78516 0 6.94336 0C7.10156 0 7.23633 0.0556641 7.34766 0.166992C7.45898 0.27832 7.51465 0.413086 7.51465 0.571289V2.49609C7.51465 2.6543 7.45898 2.79199 7.34766 2.90918C7.23633 3.02051 7.10156 3.07617 6.94336 3.07617ZM8.86816 3.58594C8.7334 3.50977 8.64551 3.39551 8.60449 3.24316C8.56348 3.09082 8.58105 2.94434 8.65723 2.80371L9.62402 1.14258C9.70605 1.00195 9.82324 0.911133 9.97559 0.870117C10.1279 0.829102 10.2744 0.849609 10.415 0.931641C10.5498 1.00781 10.6377 1.125 10.6787 1.2832C10.7256 1.43555 10.708 1.58203 10.626 1.72266L9.65918 3.375C9.57715 3.51562 9.45996 3.60645 9.30762 3.64746C9.15527 3.68848 9.00879 3.66797 8.86816 3.58594ZM10.2832 5.00098C10.207 4.86621 10.1895 4.72266 10.2305 4.57031C10.2715 4.41211 10.3594 4.29492 10.4941 4.21875L12.1641 3.26074C12.2988 3.18457 12.4424 3.16699 12.5947 3.20801C12.7529 3.24316 12.8701 3.33105 12.9463 3.47168C13.0283 3.60645 13.0459 3.75293 12.999 3.91113C12.958 4.06348 12.8701 4.17773 12.7354 4.25391L11.0742 5.21191C10.9395 5.28809 10.793 5.30859 10.6348 5.27344C10.4824 5.23242 10.3652 5.1416 10.2832 5.00098ZM10.8018 6.93457C10.8018 6.77637 10.8574 6.6416 10.9688 6.53027C11.0859 6.41309 11.2207 6.35449 11.373 6.35449L13.3066 6.36328C13.459 6.36328 13.5938 6.41895 13.7109 6.53027C13.8281 6.6416 13.8867 6.7793 13.8867 6.94336C13.8867 7.0957 13.8281 7.23047 13.7109 7.34766C13.5938 7.45898 13.4561 7.51465 13.2979 7.51465L11.373 7.50586C11.2207 7.50586 11.0859 7.45312 10.9688 7.34766C10.8574 7.23633 10.8018 7.09863 10.8018 6.93457ZM10.2832 8.85938C10.3594 8.72461 10.4766 8.63672 10.6348 8.5957C10.793 8.55469 10.9395 8.57227 11.0742 8.64844L12.7354 9.62402C12.8701 9.7002 12.958 9.81445 12.999 9.9668C13.0459 10.1191 13.0283 10.2686 12.9463 10.415C12.8701 10.5439 12.7529 10.6318 12.5947 10.6787C12.4424 10.7197 12.2959 10.6992 12.1553 10.6172L10.4941 9.65039C10.3652 9.57422 10.2773 9.45996 10.2305 9.30762C10.1895 9.15527 10.207 9.00586 10.2832 8.85938ZM8.86816 10.2744C9.00293 10.1982 9.14941 10.1836 9.30762 10.2305C9.46582 10.2715 9.58301 10.3564 9.65918 10.4854L10.6172 12.1641C10.6934 12.2988 10.7109 12.4453 10.6699 12.6035C10.6348 12.7559 10.5498 12.8701 10.415 12.9463C10.2803 13.0283 10.1309 13.0459 9.9668 12.999C9.80859 12.9521 9.69141 12.8613 9.61523 12.7266L8.65723 11.0654C8.58105 10.9307 8.56055 10.7871 8.5957 10.6348C8.63672 10.4824 8.72754 10.3623 8.86816 10.2744ZM6.94336 10.8018C7.10156 10.8018 7.23633 10.8574 7.34766 10.9688C7.45898 11.0801 7.51465 11.2148 7.51465 11.373V13.2979C7.51465 13.4561 7.45898 13.5908 7.34766 13.7021C7.23633 13.8135 7.10156 13.8691 6.94336 13.8691C6.78516 13.8691 6.64746 13.8135 6.53027 13.7021C6.41895 13.5908 6.36328 13.4561 6.36328 13.2979V11.373C6.36328 11.2148 6.41895 11.0801 6.53027 10.9688C6.64746 10.8574 6.78516 10.8018 6.94336 10.8018ZM5.00977 10.2832C5.14453 10.3594 5.23242 10.4766 5.27344 10.6348C5.32031 10.7871 5.30273 10.9336 5.2207 11.0742L4.25391 12.7266C4.17188 12.8672 4.05469 12.958 3.90234 12.999C3.75586 13.04 3.6123 13.0195 3.47168 12.9375C3.33691 12.8613 3.24609 12.7471 3.19922 12.5947C3.1582 12.4424 3.17871 12.2959 3.26074 12.1553L4.22754 10.4941C4.30957 10.3535 4.42383 10.2627 4.57031 10.2217C4.72266 10.1807 4.86914 10.2012 5.00977 10.2832ZM3.59473 8.86816C3.67676 9.00293 3.69434 9.14941 3.64746 9.30762C3.60645 9.46582 3.51855 9.58301 3.38379 9.65918L1.72266 10.6172C1.58789 10.6934 1.44141 10.7109 1.2832 10.6699C1.13086 10.6289 1.01367 10.541 0.931641 10.4062C0.855469 10.2715 0.837891 10.125 0.878906 9.9668C0.919922 9.80859 1.00781 9.69141 1.14258 9.61523L2.8125 8.65723C2.94727 8.58105 3.09082 8.56348 3.24316 8.60449C3.39551 8.63965 3.5127 8.72754 3.59473 8.86816ZM3.08496 6.94336C3.08496 7.0957 3.02637 7.23047 2.90918 7.34766C2.79199 7.45898 2.65723 7.51465 2.50488 7.51465L0.580078 7.50586C0.421875 7.50586 0.28418 7.4502 0.166992 7.33887C0.0556641 7.22754 0 7.09277 0 6.93457C0 6.77637 0.0556641 6.6416 0.166992 6.53027C0.28418 6.41309 0.424805 6.35449 0.588867 6.35449L2.50488 6.36328C2.65723 6.36328 2.79199 6.41895 2.90918 6.53027C3.02637 6.6416 3.08496 6.7793 3.08496 6.94336ZM3.59473 5.00977C3.51855 5.14453 3.40137 5.23242 3.24316 5.27344C3.08496 5.31445 2.94141 5.29688 2.8125 5.2207L1.14258 4.24512C1.01367 4.16895 0.925781 4.05469 0.878906 3.90234C0.837891 3.75 0.855469 3.60352 0.931641 3.46289C1.01367 3.33398 1.13086 3.24902 1.2832 3.20801C1.44141 3.16113 1.59082 3.17871 1.73145 3.26074L3.38379 4.22754C3.51855 4.30371 3.60645 4.41797 3.64746 4.57031C3.69434 4.72266 3.67676 4.86914 3.59473 5.00977ZM5.00977 3.59473C4.875 3.67676 4.72852 3.69727 4.57031 3.65625C4.41797 3.60938 4.30371 3.51855 4.22754 3.38379L3.26953 1.71387C3.19336 1.5791 3.17285 1.43555 3.20801 1.2832C3.24316 1.125 3.33105 1.00488 3.47168 0.922852C3.60645 0.84668 3.75293 0.832031 3.91113 0.878906C4.06934 0.919922 4.18652 1.00781 4.2627 1.14258L5.2207 2.8125C5.29688 2.94141 5.31445 3.08496 5.27344 3.24316C5.23828 3.39551 5.15039 3.5127 5.00977 3.59473ZM18.0264 18.2285C17.8857 18.2285 17.7656 18.1787 17.666 18.0791C17.5723 17.9854 17.5254 17.8682 17.5254 17.7275V16.374L16.8223 17.0771C16.7168 17.1826 16.5938 17.2354 16.4531 17.2354C16.3184 17.2354 16.2012 17.1826 16.1016 17.0771C15.9961 16.9775 15.9434 16.8604 15.9434 16.7256C15.9434 16.5908 15.9961 16.4707 16.1016 16.3652L16.8047 15.6621H15.4512C15.3164 15.6621 15.1992 15.6123 15.0996 15.5127C15.0059 15.4131 14.959 15.293 14.959 15.1523C14.959 15.0117 15.0059 14.8945 15.0996 14.8008C15.1992 14.7012 15.3164 14.6514 15.4512 14.6514H16.8047L16.0928 13.9395C15.9932 13.8398 15.9434 13.7227 15.9434 13.5879C15.9434 13.4473 15.9961 13.3271 16.1016 13.2275C16.2012 13.1221 16.3213 13.0693 16.4619 13.0693C16.6025 13.0693 16.7227 13.1221 16.8223 13.2275L17.5254 13.9307V12.5859C17.5254 12.4453 17.5723 12.3252 17.666 12.2256C17.7656 12.126 17.8857 12.0762 18.0264 12.0762C18.167 12.0762 18.2871 12.126 18.3867 12.2256C18.4863 12.3252 18.5361 12.4453 18.5361 12.5859V13.9307L19.248 13.2275C19.3477 13.1221 19.4648 13.0693 19.5996 13.0693C19.7402 13.0693 19.8604 13.1221 19.96 13.2275C20.0654 13.3271 20.1182 13.4473 20.1182 13.5879C20.1182 13.7227 20.0654 13.8398 19.96 13.9395L19.248 14.6514H20.6016C20.7422 14.6514 20.8623 14.7012 20.9619 14.8008C21.0615 14.8945 21.1113 15.0117 21.1113 15.1523C21.1113 15.293 21.0615 15.4131 20.9619 15.5127C20.8623 15.6123 20.7422 15.6621 20.6016 15.6621H19.2568L19.9512 16.3652C20.0625 16.4707 20.1182 16.5908 20.1182 16.7256C20.1182 16.8604 20.0625 16.9775 19.9512 17.0771C19.8574 17.1826 19.7402 17.2354 19.5996 17.2354C19.4648 17.2354 19.3477 17.1826 19.248 17.0771L18.5361 16.374V17.7275C18.5361 17.8682 18.4863 17.9854 18.3867 18.0791C18.2871 18.1787 18.167 18.2285 18.0264 18.2285ZM18.0352 11.5225C17.8477 11.5225 17.6895 11.458 17.5605 11.3291C17.4316 11.2002 17.3672 11.0391 17.3672 10.8457C17.3672 10.6641 17.4316 10.5088 17.5605 10.3799C17.6895 10.2451 17.8477 10.1777 18.0352 10.1777C18.2168 10.1777 18.3721 10.2451 18.501 10.3799C18.6299 10.5088 18.6943 10.6641 18.6943 10.8457C18.6943 11.0391 18.6299 11.2002 18.501 11.3291C18.3721 11.458 18.2168 11.5225 18.0352 11.5225ZM20.9531 12.8408C20.7832 12.8408 20.6367 12.7822 20.5137 12.665C20.3965 12.542 20.3379 12.3926 20.3379 12.2168C20.3379 12.0469 20.3965 11.9033 20.5137 11.7861C20.6367 11.6631 20.7832 11.6016 20.9531 11.6016C21.123 11.6016 21.2695 11.6631 21.3926 11.7861C21.5156 11.9033 21.5771 12.0469 21.5771 12.2168C21.5771 12.3926 21.5156 12.542 21.3926 12.665C21.2695 12.7822 21.123 12.8408 20.9531 12.8408ZM22.3418 15.8203C22.1484 15.8203 21.9873 15.7559 21.8584 15.627C21.7354 15.498 21.6738 15.3398 21.6738 15.1523C21.6738 14.9707 21.7354 14.8154 21.8584 14.6865C21.9873 14.5576 22.1484 14.4932 22.3418 14.4932C22.5234 14.4932 22.6787 14.5576 22.8076 14.6865C22.9424 14.8154 23.0098 14.9707 23.0098 15.1523C23.0098 15.3398 22.9424 15.498 22.8076 15.627C22.6787 15.7559 22.5234 15.8203 22.3418 15.8203ZM20.9531 18.7119C20.7832 18.7119 20.6367 18.6504 20.5137 18.5273C20.3965 18.4102 20.3379 18.2666 20.3379 18.0967C20.3379 17.9209 20.3965 17.7715 20.5137 17.6484C20.6367 17.5312 20.7832 17.4727 20.9531 17.4727C21.123 17.4727 21.2695 17.5312 21.3926 17.6484C21.5156 17.7715 21.5771 17.9209 21.5771 18.0967C21.5771 18.2666 21.5156 18.4102 21.3926 18.5273C21.2695 18.6504 21.123 18.7119 20.9531 18.7119ZM18.0352 20.127C17.8477 20.127 17.6895 20.0625 17.5605 19.9336C17.4316 19.8047 17.3672 19.6494 17.3672 19.4678C17.3672 19.2744 17.4316 19.1133 17.5605 18.9844C17.6895 18.8555 17.8477 18.791 18.0352 18.791C18.2168 18.791 18.3721 18.8555 18.501 18.9844C18.6299 19.1133 18.6943 19.2744 18.6943 19.4678C18.6943 19.6494 18.6299 19.8047 18.501 19.9336C18.3721 20.0625 18.2168 20.127 18.0352 20.127ZM15.1084 18.7031C14.9385 18.7031 14.792 18.6445 14.6689 18.5273C14.5459 18.4102 14.4844 18.2666 14.4844 18.0967C14.4844 17.9209 14.5459 17.7715 14.6689 17.6484C14.792 17.5312 14.9385 17.4727 15.1084 17.4727C15.2783 17.4727 15.4219 17.5312 15.5391 17.6484C15.6621 17.7715 15.7236 17.9209 15.7236 18.0967C15.7236 18.2666 15.6621 18.4102 15.5391 18.5273C15.4219 18.6445 15.2783 18.7031 15.1084 18.7031ZM13.7197 15.8203C13.5381 15.8203 13.3828 15.7559 13.2539 15.627C13.125 15.498 13.0605 15.3398 13.0605 15.1523C13.0605 14.9707 13.125 14.8154 13.2539 14.6865C13.3828 14.5576 13.5381 14.4932 13.7197 14.4932C13.9131 14.4932 14.0742 14.5576 14.2031 14.6865C14.332 14.8154 14.3936 14.9707 14.3877 15.1523C14.3936 15.3398 14.332 15.498 14.2031 15.627C14.0742 15.7559 13.9131 15.8203 13.7197 15.8203ZM15.1084 12.8408C14.9385 12.8408 14.792 12.7822 14.6689 12.665C14.5459 12.542 14.4844 12.3926 14.4844 12.2168C14.4844 12.0469 14.5459 11.9033 14.6689 11.7861C14.792 11.6631 14.9385 11.6016 15.1084 11.6016C15.2783 11.6016 15.4219 11.6631 15.5391 11.7861C15.6621 11.9033 15.7236 12.0469 15.7236 12.2168C15.7236 12.3926 15.6621 12.542 15.5391 12.665C15.4219 12.7822 15.2783 12.8408 15.1084 12.8408ZM18.8086 7.80469C18.7148 7.80469 18.6416 7.78125 18.5889 7.73438C18.5361 7.68164 18.5039 7.61719 18.4922 7.54102C18.3926 7.01953 18.2988 6.62109 18.2109 6.3457C18.1289 6.06445 18.0146 5.85938 17.8682 5.73047C17.7275 5.60156 17.5225 5.50488 17.2529 5.44043C16.9893 5.37012 16.623 5.28809 16.1543 5.19434C15.9785 5.15918 15.8906 5.05371 15.8906 4.87793C15.8906 4.7959 15.9141 4.72852 15.9609 4.67578C16.0137 4.62305 16.0781 4.58789 16.1543 4.57031C16.623 4.47656 16.9893 4.39746 17.2529 4.33301C17.5225 4.2627 17.7275 4.16309 17.8682 4.03418C18.0146 3.89941 18.1289 3.69434 18.2109 3.41895C18.2988 3.1377 18.3926 2.73926 18.4922 2.22363C18.5273 2.04785 18.6328 1.95996 18.8086 1.95996C18.9785 1.95996 19.0811 2.04785 19.1162 2.22363C19.2158 2.7334 19.3037 3.12891 19.3799 3.41016C19.4561 3.68555 19.5615 3.8877 19.6963 4.0166C19.8311 4.14551 20.0361 4.24512 20.3115 4.31543C20.5869 4.38574 20.9736 4.4707 21.4717 4.57031C21.6475 4.61133 21.7354 4.71387 21.7354 4.87793C21.7354 5.05371 21.6475 5.15918 21.4717 5.19434C20.9736 5.29395 20.5869 5.37598 20.3115 5.44043C20.042 5.50488 19.8369 5.60156 19.6963 5.73047C19.5615 5.85938 19.4561 6.06445 19.3799 6.3457C19.3037 6.62109 19.2158 7.01953 19.1162 7.54102C19.0811 7.7168 18.9785 7.80469 18.8086 7.80469ZM9.7207 21.832C9.64453 21.832 9.58301 21.8086 9.53613 21.7617C9.49512 21.7207 9.46875 21.668 9.45703 21.6035C9.375 21.1992 9.29883 20.8828 9.22852 20.6543C9.16406 20.4258 9.07324 20.2529 8.95605 20.1357C8.84473 20.0244 8.6748 19.9365 8.44629 19.8721C8.22363 19.8076 7.91309 19.7344 7.51465 19.6523C7.35645 19.623 7.27734 19.5352 7.27734 19.3887C7.27734 19.2422 7.35645 19.1572 7.51465 19.1338C7.91309 19.0459 8.22363 18.9697 8.44629 18.9053C8.6748 18.8408 8.84473 18.75 8.95605 18.6328C9.07324 18.5215 9.16406 18.3516 9.22852 18.123C9.29883 17.9004 9.375 17.5869 9.45703 17.1826C9.48633 17.0303 9.57422 16.9541 9.7207 16.9541C9.86719 16.9541 9.95215 17.0303 9.97559 17.1826C10.0576 17.5869 10.1309 17.9004 10.1953 18.123C10.2656 18.3516 10.3564 18.5215 10.4678 18.6328C10.585 18.75 10.7549 18.8408 10.9775 18.9053C11.2061 18.9697 11.5225 19.0459 11.9268 19.1338C12.0791 19.1572 12.1553 19.2422 12.1553 19.3887C12.1553 19.5352 12.0791 19.623 11.9268 19.6523C11.5225 19.7344 11.2061 19.8076 10.9775 19.8721C10.7549 19.9365 10.585 20.0244 10.4678 20.1357C10.3564 20.2529 10.2656 20.4229 10.1953 20.6455C10.1309 20.874 10.0576 21.1934 9.97559 21.6035C9.95215 21.7559 9.86719 21.832 9.7207 21.832ZM5.15039 18.9756C5.02734 18.9756 4.9541 18.9141 4.93066 18.791C4.86621 18.457 4.80469 18.1963 4.74609 18.0088C4.69336 17.8271 4.62012 17.6895 4.52637 17.5957C4.43262 17.502 4.29199 17.4287 4.10449 17.376C3.92285 17.3232 3.66797 17.2646 3.33984 17.2002C3.21094 17.1768 3.14648 17.1035 3.14648 16.9805C3.14648 16.8574 3.21094 16.7842 3.33984 16.7607C3.66797 16.6963 3.92285 16.6377 4.10449 16.585C4.29199 16.5322 4.43262 16.459 4.52637 16.3652C4.62012 16.2715 4.69336 16.1338 4.74609 15.9521C4.80469 15.7646 4.86621 15.5039 4.93066 15.1699C4.9541 15.0469 5.02734 14.9854 5.15039 14.9854C5.27344 14.9854 5.34375 15.0469 5.36133 15.1699C5.43164 15.5039 5.49316 15.7646 5.5459 15.9521C5.59863 16.1338 5.67188 16.2715 5.76562 16.3652C5.85938 16.459 5.99707 16.5322 6.17871 16.585C6.36621 16.6377 6.62402 16.6963 6.95215 16.7607C7.08105 16.7842 7.14551 16.8574 7.14551 16.9805C7.14551 17.1035 7.08105 17.1768 6.95215 17.2002C6.62402 17.2646 6.36621 17.3232 6.17871 17.376C5.99707 17.4287 5.85938 17.502 5.76562 17.5957C5.67188 17.6895 5.59863 17.8271 5.5459 18.0088C5.49316 18.1963 5.43164 18.457 5.36133 18.791C5.34375 18.9141 5.27344 18.9756 5.15039 18.9756Z" fill="#333333"/>
</svg>
