<svg width="18" height="18" viewBox="0 0 18 18" fill="none" xmlns="http://www.w3.org/2000/svg">
<path d="M1.05469 13.1309C0.398438 12.4629 0.0585938 11.7744 0.0351562 11.0654C0.0117188 10.3564 0.313477 9.68848 0.94043 9.06152L9.41309 0.588867C9.7998 0.196289 10.2451 0.00585938 10.749 0.0175781C11.2529 0.0234375 11.7041 0.225586 12.1025 0.624023L16.9629 5.47559C17.3613 5.87402 17.5635 6.3252 17.5693 6.8291C17.5752 7.33301 17.3818 7.77832 16.9893 8.16504L8.5166 16.6465C7.89551 17.2676 7.22754 17.5664 6.5127 17.543C5.80371 17.5254 5.11816 17.1855 4.45605 16.5234L1.05469 13.1309ZM2.05664 12.1289L5.45801 15.5215C5.80371 15.8672 6.16113 16.0459 6.53027 16.0576C6.89941 16.0693 7.24512 15.9141 7.56738 15.5918L15.9434 7.21582C16.0488 7.10449 16.1016 6.98145 16.1016 6.84668C16.1074 6.70605 16.0576 6.58008 15.9521 6.46875L11.1182 1.63477C11.0068 1.52344 10.8809 1.4707 10.7402 1.47656C10.5996 1.47656 10.4707 1.53223 10.3535 1.64355L1.98633 10.0107C1.66406 10.3389 1.50879 10.6875 1.52051 11.0566C1.53809 11.4258 1.7168 11.7832 2.05664 12.1289ZM2.33789 8.63086L3.23438 7.77832L9.82617 14.3701L8.94727 15.249L2.33789 8.63086Z" fill="#333333"/>
</svg>
