<svg width="20" height="19" viewBox="0 0 20 19" fill="none" xmlns="http://www.w3.org/2000/svg">
<g>
<path d="M3.80566 18.4922C3.62402 18.3574 3.5127 18.1758 3.47168 17.9473C3.43652 17.7188 3.47461 17.4463 3.58594 17.1299L5.42285 11.6631L0.729492 8.28809C0.454102 8.09473 0.263672 7.89551 0.158203 7.69043C0.0527344 7.48535 0.0351562 7.27441 0.105469 7.05762C0.175781 6.84668 0.313477 6.69141 0.518555 6.5918C0.723633 6.48633 0.996094 6.43359 1.33594 6.43359H7.09277L8.8418 0.975586C8.94727 0.65332 9.0791 0.410156 9.2373 0.246094C9.40137 0.0820312 9.59473 0 9.81738 0C10.0459 0 10.2393 0.0820312 10.3975 0.246094C10.5615 0.410156 10.6963 0.65332 10.8018 0.975586L12.5508 6.43359H18.3076C18.6475 6.43359 18.9199 6.48633 19.125 6.5918C19.3301 6.69141 19.4678 6.84668 19.5381 7.05762C19.6084 7.27441 19.5908 7.48535 19.4854 7.69043C19.3799 7.89551 19.1895 8.09473 18.9141 8.28809L14.2207 11.6631L16.0576 17.1299C16.1689 17.4463 16.2041 17.7188 16.1631 17.9473C16.1279 18.1758 16.0195 18.3574 15.8379 18.4922C15.6562 18.6328 15.4512 18.6797 15.2227 18.6328C14.9941 18.5918 14.7451 18.4746 14.4756 18.2812L9.81738 14.8623L5.16797 18.2812C4.89844 18.4746 4.64941 18.5918 4.4209 18.6328C4.19238 18.6797 3.9873 18.6328 3.80566 18.4922Z" fill="#333333"/>
</g>
</svg>
