<svg width="20" height="19" viewBox="0 0 20 19" fill="none" xmlns="http://www.w3.org/2000/svg">
<g>
<path d="M3.80566 18.4922C3.62402 18.3574 3.5127 18.1758 3.47168 17.9473C3.43652 17.7188 3.47461 17.4463 3.58594 17.1299L5.42285 11.6631L0.729492 8.28809C0.454102 8.09473 0.263672 7.89551 0.158203 7.69043C0.0527344 7.48535 0.0351562 7.27441 0.105469 7.05762C0.175781 6.84668 0.313477 6.68848 0.518555 6.58301C0.723633 6.47754 0.996094 6.42773 1.33594 6.43359L7.09277 6.46875L8.8418 0.975586C8.94727 0.65332 9.0791 0.410156 9.2373 0.246094C9.40137 0.0820312 9.59473 0 9.81738 0C10.0459 0 10.2393 0.0820312 10.3975 0.246094C10.5615 0.410156 10.6963 0.65332 10.8018 0.975586L12.5508 6.46875L18.3076 6.43359C18.6475 6.42773 18.9199 6.47754 19.125 6.58301C19.3301 6.68848 19.4678 6.84668 19.5381 7.05762C19.6084 7.27441 19.5908 7.48535 19.4854 7.69043C19.3799 7.89551 19.1895 8.09473 18.9141 8.28809L14.2207 11.6631L16.0576 17.1299C16.1689 17.4463 16.2041 17.7188 16.1631 17.9473C16.1279 18.1758 16.0195 18.3574 15.8379 18.4922C15.6562 18.6328 15.4512 18.6797 15.2227 18.6328C14.9941 18.5918 14.7451 18.4746 14.4756 18.2812L9.81738 14.8623L5.16797 18.2812C4.89844 18.4746 4.64941 18.5918 4.4209 18.6328C4.19238 18.6797 3.9873 18.6328 3.80566 18.4922ZM5.07129 16.752C5.08301 16.7695 5.10938 16.7637 5.15039 16.7344L9.37793 13.5088C9.51855 13.3975 9.66504 13.3418 9.81738 13.3418C9.97559 13.3418 10.125 13.3975 10.2656 13.5088L14.4932 16.7344C14.5342 16.7637 14.5605 16.7695 14.5723 16.752C14.5781 16.7402 14.5781 16.7139 14.5723 16.6729L12.8232 11.6455C12.7822 11.5342 12.7617 11.4287 12.7617 11.3291C12.7676 11.2295 12.7969 11.1387 12.8496 11.0566C12.9023 10.9688 12.9785 10.8896 13.0781 10.8193L17.4551 7.7959C17.4961 7.77246 17.5107 7.74902 17.499 7.72559C17.4932 7.70801 17.4668 7.69922 17.4199 7.69922L12.1025 7.7959C11.9209 7.80176 11.7715 7.7666 11.6543 7.69043C11.5371 7.6084 11.4521 7.47656 11.3994 7.29492L9.87012 2.20605C9.8584 2.15918 9.84082 2.13574 9.81738 2.13574C9.7998 2.13574 9.78516 2.15918 9.77344 2.20605L8.24414 7.29492C8.19141 7.47656 8.10645 7.6084 7.98926 7.69043C7.87207 7.7666 7.72266 7.80176 7.54102 7.7959L2.22363 7.69922C2.17676 7.69922 2.15039 7.70801 2.14453 7.72559C2.13281 7.74902 2.14746 7.77246 2.18848 7.7959L6.56543 10.8193C6.66504 10.8896 6.74121 10.9688 6.79395 11.0566C6.84668 11.1387 6.87305 11.2295 6.87305 11.3291C6.87891 11.4287 6.86133 11.5342 6.82031 11.6455L5.07129 16.6729C5.05957 16.7139 5.05957 16.7402 5.07129 16.752Z" fill="#CCCCCC"/>
</g>
</svg>
