<svg width="18" height="17" viewBox="0 0 18 17" fill="none" xmlns="http://www.w3.org/2000/svg">
<path d="M1.52051 4.9834C1.04004 4.9834 0.665039 4.84863 0.395508 4.5791C0.131836 4.30957 0 3.92578 0 3.42773V1.55566C0 1.06348 0.131836 0.682617 0.395508 0.413086C0.665039 0.137695 1.04004 0 1.52051 0H3.46289C3.94336 0 4.31543 0.137695 4.5791 0.413086C4.84863 0.682617 4.9834 1.06348 4.9834 1.55566V3.42773C4.9834 3.92578 4.84863 4.30957 4.5791 4.5791C4.31543 4.84863 3.94336 4.9834 3.46289 4.9834H1.52051ZM7.6377 4.9834C7.15723 4.9834 6.78516 4.84863 6.52148 4.5791C6.25781 4.30957 6.12598 3.92578 6.12598 3.42773V1.55566C6.12598 1.06348 6.25781 0.682617 6.52148 0.413086C6.78516 0.137695 7.15723 0 7.6377 0H9.58887C10.0693 0 10.4414 0.137695 10.7051 0.413086C10.9688 0.682617 11.1006 1.06348 11.1006 1.55566V3.42773C11.1006 3.92578 10.9688 4.30957 10.7051 4.5791C10.4414 4.84863 10.0693 4.9834 9.58887 4.9834H7.6377ZM13.7725 4.9834C13.292 4.9834 12.917 4.84863 12.6475 4.5791C12.3838 4.30957 12.252 3.92578 12.252 3.42773V1.55566C12.252 1.06348 12.3838 0.682617 12.6475 0.413086C12.917 0.137695 13.292 0 13.7725 0H15.7148C16.1953 0 16.5674 0.137695 16.8311 0.413086C17.1006 0.682617 17.2354 1.06348 17.2354 1.55566V3.42773C17.2354 3.92578 17.1006 4.30957 16.8311 4.5791C16.5674 4.84863 16.1953 4.9834 15.7148 4.9834H13.7725ZM1.52051 10.9336C1.04004 10.9336 0.665039 10.7988 0.395508 10.5293C0.131836 10.2598 0 9.87891 0 9.38672V7.50586C0 7.00781 0.131836 6.62402 0.395508 6.35449C0.665039 6.08496 1.04004 5.9502 1.52051 5.9502H3.46289C3.94336 5.9502 4.31543 6.08496 4.5791 6.35449C4.84863 6.62402 4.9834 7.00781 4.9834 7.50586V9.38672C4.9834 9.87891 4.84863 10.2598 4.5791 10.5293C4.31543 10.7988 3.94336 10.9336 3.46289 10.9336H1.52051ZM7.6377 10.9336C7.15723 10.9336 6.78516 10.7988 6.52148 10.5293C6.25781 10.2598 6.12598 9.87891 6.12598 9.38672V7.50586C6.12598 7.00781 6.25781 6.62402 6.52148 6.35449C6.78516 6.08496 7.15723 5.9502 7.6377 5.9502H9.58887C10.0693 5.9502 10.4414 6.08496 10.7051 6.35449C10.9688 6.62402 11.1006 7.00781 11.1006 7.50586V9.38672C11.1006 9.87891 10.9688 10.2598 10.7051 10.5293C10.4414 10.7988 10.0693 10.9336 9.58887 10.9336H7.6377ZM13.7725 10.9336C13.292 10.9336 12.917 10.7988 12.6475 10.5293C12.3838 10.2598 12.252 9.87891 12.252 9.38672V7.50586C12.252 7.00781 12.3838 6.62402 12.6475 6.35449C12.917 6.08496 13.292 5.9502 13.7725 5.9502H15.7148C16.1953 5.9502 16.5674 6.08496 16.8311 6.35449C17.1006 6.62402 17.2354 7.00781 17.2354 7.50586V9.38672C17.2354 9.87891 17.1006 10.2598 16.8311 10.5293C16.5674 10.7988 16.1953 10.9336 15.7148 10.9336H13.7725ZM1.52051 16.8838C1.04004 16.8838 0.665039 16.749 0.395508 16.4795C0.131836 16.21 0 15.8262 0 15.3281V13.4561C0 12.958 0.131836 12.5742 0.395508 12.3047C0.665039 12.0352 1.04004 11.9004 1.52051 11.9004H3.46289C3.94336 11.9004 4.31543 12.0352 4.5791 12.3047C4.84863 12.5742 4.9834 12.958 4.9834 13.4561V15.3281C4.9834 15.8262 4.84863 16.21 4.5791 16.4795C4.31543 16.749 3.94336 16.8838 3.46289 16.8838H1.52051ZM7.6377 16.8838C7.15723 16.8838 6.78516 16.749 6.52148 16.4795C6.25781 16.21 6.12598 15.8262 6.12598 15.3281V13.4561C6.12598 12.958 6.25781 12.5742 6.52148 12.3047C6.78516 12.0352 7.15723 11.9004 7.6377 11.9004H9.58887C10.0693 11.9004 10.4414 12.0352 10.7051 12.3047C10.9688 12.5742 11.1006 12.958 11.1006 13.4561V15.3281C11.1006 15.8262 10.9688 16.21 10.7051 16.4795C10.4414 16.749 10.0693 16.8838 9.58887 16.8838H7.6377ZM13.7725 16.8838C13.292 16.8838 12.917 16.749 12.6475 16.4795C12.3838 16.21 12.252 15.8262 12.252 15.3281V13.4561C12.252 12.958 12.3838 12.5742 12.6475 12.3047C12.917 12.0352 13.292 11.9004 13.7725 11.9004H15.7148C16.1953 11.9004 16.5674 12.0352 16.8311 12.3047C17.1006 12.5742 17.2354 12.958 17.2354 13.4561V15.3281C17.2354 15.8262 17.1006 16.21 16.8311 16.4795C16.5674 16.749 16.1953 16.8838 15.7148 16.8838H13.7725Z" fill="#CCCCCC"/>
</svg>
