<svg width="18" height="18" viewBox="0 0 18 18" fill="none" xmlns="http://www.w3.org/2000/svg">
<g style="mix-blend-mode:difference">
<path d="M4.36816 9.91406C4.19238 9.91406 4.0459 9.85547 3.92871 9.73828C3.81152 9.62109 3.75293 9.47461 3.75293 9.29883C3.75293 9.12891 3.81152 8.98535 3.92871 8.86816C4.0459 8.75098 4.19238 8.69238 4.36816 8.69238H8.34961V3.375C8.34961 3.20508 8.4082 3.06152 8.52539 2.94434C8.64258 2.82715 8.78613 2.76855 8.95605 2.76855C9.13184 2.76855 9.27832 2.82715 9.39551 2.94434C9.5127 3.06152 9.57129 3.20508 9.57129 3.375V9.29883C9.57129 9.47461 9.5127 9.62109 9.39551 9.73828C9.27832 9.85547 9.13184 9.91406 8.95605 9.91406H4.36816ZM8.96484 17.9297C7.72852 17.9297 6.56836 17.6953 5.48438 17.2266C4.40039 16.7637 3.44824 16.1221 2.62793 15.3018C1.80762 14.4814 1.16309 13.5293 0.694336 12.4453C0.231445 11.3613 0 10.2012 0 8.96484C0 7.72852 0.231445 6.56836 0.694336 5.48438C1.16309 4.40039 1.80762 3.44824 2.62793 2.62793C3.44824 1.80176 4.40039 1.15723 5.48438 0.694336C6.56836 0.231445 7.72852 0 8.96484 0C10.2012 0 11.3613 0.231445 12.4453 0.694336C13.5293 1.15723 14.4814 1.80176 15.3018 2.62793C16.1221 3.44824 16.7637 4.40039 17.2266 5.48438C17.6953 6.56836 17.9297 7.72852 17.9297 8.96484C17.9297 10.2012 17.6953 11.3613 17.2266 12.4453C16.7637 13.5293 16.1221 14.4814 15.3018 15.3018C14.4814 16.1221 13.5293 16.7637 12.4453 17.2266C11.3613 17.6953 10.2012 17.9297 8.96484 17.9297ZM8.96484 16.4355C9.99609 16.4355 10.9629 16.2422 11.8652 15.8555C12.7676 15.4688 13.5615 14.9326 14.2471 14.2471C14.9326 13.5615 15.4688 12.7676 15.8555 11.8652C16.2422 10.9629 16.4355 9.99609 16.4355 8.96484C16.4355 7.93359 16.2422 6.9668 15.8555 6.06445C15.4688 5.15625 14.9326 4.3623 14.2471 3.68262C13.5615 2.99707 12.7676 2.46094 11.8652 2.07422C10.9629 1.6875 9.99609 1.49414 8.96484 1.49414C7.93359 1.49414 6.9668 1.6875 6.06445 2.07422C5.16211 2.46094 4.36816 2.99707 3.68262 3.68262C2.99707 4.3623 2.46094 5.15625 2.07422 6.06445C1.6875 6.9668 1.49414 7.93359 1.49414 8.96484C1.49414 9.99609 1.6875 10.9629 2.07422 11.8652C2.46094 12.7676 2.99707 13.5615 3.68262 14.2471C4.36816 14.9326 5.16211 15.4688 6.06445 15.8555C6.9668 16.2422 7.93359 16.4355 8.96484 16.4355Z" fill="#B2B2B2"/>
</g>
</svg>
