<svg width="18" height="18" viewBox="0 0 18 18" fill="none" xmlns="http://www.w3.org/2000/svg">
<g style="mix-blend-mode:difference">
<path d="M8.96484 17.9297C7.72852 17.9297 6.56836 17.6953 5.48438 17.2266C4.40039 16.7637 3.44824 16.1221 2.62793 15.3018C1.80762 14.4814 1.16309 13.5293 0.694336 12.4453C0.231445 11.3613 0 10.2012 0 8.96484C0 7.72852 0.231445 6.56836 0.694336 5.48438C1.16309 4.40039 1.80762 3.44824 2.62793 2.62793C3.44824 1.80176 4.40039 1.15723 5.48438 0.694336C6.56836 0.231445 7.72852 0 8.96484 0C10.2012 0 11.3613 0.231445 12.4453 0.694336C13.5293 1.15723 14.4814 1.80176 15.3018 2.62793C16.1221 3.44824 16.7637 4.40039 17.2266 5.48438C17.6953 6.56836 17.9297 7.72852 17.9297 8.96484C17.9297 10.2012 17.6953 11.3613 17.2266 12.4453C16.7637 13.5293 16.1221 14.4814 15.3018 15.3018C14.4814 16.1221 13.5293 16.7637 12.4453 17.2266C11.3613 17.6953 10.2012 17.9297 8.96484 17.9297ZM8.96484 16.4355C9.99609 16.4355 10.9629 16.2422 11.8652 15.8555C12.7676 15.4688 13.5615 14.9326 14.2471 14.2471C14.9326 13.5615 15.4688 12.7676 15.8555 11.8652C16.2422 10.9629 16.4355 9.99609 16.4355 8.96484C16.4355 7.93359 16.2422 6.9668 15.8555 6.06445C15.4688 5.15625 14.9326 4.3623 14.2471 3.68262C13.5615 2.99707 12.7676 2.46094 11.8652 2.07422C10.9629 1.6875 9.99609 1.49414 8.96484 1.49414C7.93359 1.49414 6.9668 1.6875 6.06445 2.07422C5.16211 2.46094 4.36816 2.99707 3.68262 3.68262C2.99707 4.3623 2.46094 5.15625 2.07422 6.06445C1.6875 6.9668 1.49414 7.93359 1.49414 8.96484C1.49414 9.99609 1.6875 10.9629 2.07422 11.8652C2.46094 12.7676 2.99707 13.5615 3.68262 14.2471C4.36816 14.9326 5.16211 15.4688 6.06445 15.8555C6.9668 16.2422 7.93359 16.4355 8.96484 16.4355ZM7.42676 13.8779C7.24512 13.8779 7.09277 13.8193 6.96973 13.7021C6.84668 13.585 6.78516 13.4385 6.78516 13.2627C6.78516 13.0869 6.84668 12.9404 6.96973 12.8232C7.09277 12.7061 7.24512 12.6475 7.42676 12.6475H8.5166V8.61328H7.57617C7.39453 8.61328 7.24219 8.55469 7.11914 8.4375C6.99609 8.32031 6.93457 8.17383 6.93457 7.99805C6.93457 7.82227 6.99609 7.67578 7.11914 7.55859C7.24219 7.44141 7.39453 7.38281 7.57617 7.38281H9.22852C9.45117 7.38281 9.62109 7.45605 9.73828 7.60254C9.85547 7.74316 9.91406 7.93359 9.91406 8.17383V12.6475H11.0039C11.1855 12.6475 11.3379 12.7061 11.4609 12.8232C11.584 12.9404 11.6455 13.0869 11.6455 13.2627C11.6455 13.4385 11.584 13.585 11.4609 13.7021C11.3379 13.8193 11.1855 13.8779 11.0039 13.8779H7.42676ZM8.88574 5.91504C8.56934 5.91504 8.2998 5.80371 8.07715 5.58105C7.85449 5.3584 7.74316 5.08887 7.74316 4.77246C7.74316 4.4502 7.85449 4.17773 8.07715 3.95508C8.2998 3.73242 8.56934 3.62109 8.88574 3.62109C9.20801 3.62109 9.47754 3.73242 9.69434 3.95508C9.91699 4.17773 10.0283 4.4502 10.0283 4.77246C10.0283 5.08887 9.91699 5.3584 9.69434 5.58105C9.47754 5.80371 9.20801 5.91504 8.88574 5.91504Z" fill="#B2B2B2"/>
</g>
</svg>
