<svg width="17" height="17" viewBox="0 0 17 17" fill="none" xmlns="http://www.w3.org/2000/svg">
<path d="M2.63672 1.5127C2.43164 1.5127 2.25293 1.43945 2.10059 1.29297C1.9541 1.14648 1.88086 0.967773 1.88086 0.756836C1.88086 0.551758 1.9541 0.375977 2.10059 0.229492C2.25293 0.0771484 2.43164 0.000976562 2.63672 0.000976562C2.84766 0.000976562 3.02637 0.0771484 3.17285 0.229492C3.31934 0.375977 3.39258 0.551758 3.39258 0.756836C3.39258 0.967773 3.31934 1.14648 3.17285 1.29297C3.02637 1.43945 2.84766 1.5127 2.63672 1.5127ZM5.37891 1.5127C5.17383 1.5127 4.99512 1.43945 4.84277 1.29297C4.69629 1.14648 4.62305 0.967773 4.62305 0.756836C4.62305 0.551758 4.69629 0.375977 4.84277 0.229492C4.99512 0.0771484 5.17383 0.000976562 5.37891 0.000976562C5.58984 0.000976562 5.76855 0.0771484 5.91504 0.229492C6.06152 0.375977 6.13477 0.551758 6.13477 0.756836C6.13477 0.967773 6.06152 1.14648 5.91504 1.29297C5.76855 1.43945 5.58984 1.5127 5.37891 1.5127ZM8.12109 1.5127C7.91602 1.5127 7.7373 1.43945 7.58496 1.29297C7.43848 1.14648 7.36523 0.967773 7.36523 0.756836C7.36523 0.551758 7.43848 0.375977 7.58496 0.229492C7.7373 0.0771484 7.91602 0.000976562 8.12109 0.000976562C8.33203 0.000976562 8.51074 0.0771484 8.65723 0.229492C8.80371 0.375977 8.87695 0.551758 8.87695 0.756836C8.87695 0.967773 8.80371 1.14648 8.65723 1.29297C8.51074 1.43945 8.33203 1.5127 8.12109 1.5127ZM10.8721 1.5127C10.6611 1.5127 10.4824 1.43945 10.3359 1.29297C10.1895 1.14648 10.1162 0.967773 10.1162 0.756836C10.1162 0.551758 10.1895 0.375977 10.3359 0.229492C10.4824 0.0771484 10.6611 0.000976562 10.8721 0.000976562C11.0771 0.000976562 11.2529 0.0771484 11.3994 0.229492C11.5518 0.375977 11.6279 0.551758 11.6279 0.756836C11.6279 0.967773 11.5518 1.14648 11.3994 1.29297C11.2529 1.43945 11.0771 1.5127 10.8721 1.5127ZM13.6143 1.5127C13.4033 1.5127 13.2246 1.43945 13.0781 1.29297C12.9316 1.14648 12.8584 0.967773 12.8584 0.756836C12.8584 0.551758 12.9316 0.375977 13.0781 0.229492C13.2246 0.0771484 13.4033 0.000976562 13.6143 0.000976562C13.8193 0.000976562 13.9951 0.0771484 14.1416 0.229492C14.2939 0.375977 14.3701 0.551758 14.3701 0.756836C14.3701 0.967773 14.2939 1.14648 14.1416 1.29297C13.9951 1.43945 13.8193 1.5127 13.6143 1.5127ZM15.4951 3.40234C15.29 3.40234 15.1113 3.3291 14.959 3.18262C14.8125 3.03027 14.7393 2.85156 14.7393 2.64648C14.7393 2.43555 14.8125 2.25684 14.959 2.11035C15.1113 1.96387 15.29 1.89062 15.4951 1.89062C15.7002 1.89062 15.876 1.96387 16.0225 2.11035C16.1748 2.25684 16.251 2.43555 16.251 2.64648C16.251 2.85156 16.1748 3.03027 16.0225 3.18262C15.876 3.3291 15.7002 3.40234 15.4951 3.40234ZM15.4951 6.14453C15.29 6.14453 15.1113 6.07129 14.959 5.9248C14.8125 5.77246 14.7393 5.59375 14.7393 5.38867C14.7393 5.17773 14.8125 4.99902 14.959 4.85254C15.1113 4.70605 15.29 4.63281 15.4951 4.63281C15.7002 4.63281 15.876 4.70605 16.0225 4.85254C16.1748 4.99902 16.251 5.17773 16.251 5.38867C16.251 5.59375 16.1748 5.77246 16.0225 5.9248C15.876 6.07129 15.7002 6.14453 15.4951 6.14453ZM15.4951 8.88672C15.29 8.88672 15.1113 8.81348 14.959 8.66699C14.8125 8.51465 14.7393 8.33594 14.7393 8.13086C14.7393 7.92578 14.8125 7.75 14.959 7.60352C15.1113 7.45117 15.29 7.375 15.4951 7.375C15.7002 7.375 15.876 7.45117 16.0225 7.60352C16.1748 7.75 16.251 7.92578 16.251 8.13086C16.251 8.33594 16.1748 8.51465 16.0225 8.66699C15.876 8.81348 15.7002 8.88672 15.4951 8.88672ZM15.4951 11.6289C15.29 11.6289 15.1113 11.5557 14.959 11.4092C14.8125 11.2568 14.7393 11.0781 14.7393 10.873C14.7393 10.668 14.8125 10.4922 14.959 10.3457C15.1113 10.1934 15.29 10.1172 15.4951 10.1172C15.7002 10.1172 15.876 10.1934 16.0225 10.3457C16.1748 10.4922 16.251 10.668 16.251 10.873C16.251 11.0781 16.1748 11.2568 16.0225 11.4092C15.876 11.5557 15.7002 11.6289 15.4951 11.6289ZM15.4951 14.3711C15.29 14.3711 15.1113 14.2979 14.959 14.1514C14.8125 13.999 14.7393 13.8203 14.7393 13.6152C14.7393 13.4102 14.8125 13.2344 14.959 13.0879C15.1113 12.9355 15.29 12.8594 15.4951 12.8594C15.7002 12.8594 15.876 12.9355 16.0225 13.0879C16.1748 13.2344 16.251 13.4102 16.251 13.6152C16.251 13.8203 16.1748 13.999 16.0225 14.1514C15.876 14.2979 15.7002 14.3711 15.4951 14.3711ZM13.6143 16.252C13.4033 16.252 13.2246 16.1787 13.0781 16.0322C12.9316 15.8857 12.8584 15.707 12.8584 15.4961C12.8584 15.291 12.9316 15.1123 13.0781 14.96C13.2246 14.8135 13.4033 14.7402 13.6143 14.7402C13.8193 14.7402 13.9951 14.8135 14.1416 14.96C14.2939 15.1123 14.3701 15.291 14.3701 15.4961C14.3701 15.707 14.2939 15.8857 14.1416 16.0322C13.9951 16.1787 13.8193 16.252 13.6143 16.252ZM10.8721 16.252C10.6611 16.252 10.4824 16.1787 10.3359 16.0322C10.1895 15.8857 10.1162 15.707 10.1162 15.4961C10.1162 15.291 10.1895 15.1123 10.3359 14.96C10.4824 14.8135 10.6611 14.7402 10.8721 14.7402C11.0771 14.7402 11.2529 14.8135 11.3994 14.96C11.5518 15.1123 11.6279 15.291 11.6279 15.4961C11.6279 15.707 11.5518 15.8857 11.3994 16.0322C11.2529 16.1787 11.0771 16.252 10.8721 16.252ZM8.12109 16.252C7.91602 16.252 7.7373 16.1787 7.58496 16.0322C7.43848 15.8857 7.36523 15.707 7.36523 15.4961C7.36523 15.291 7.43848 15.1123 7.58496 14.96C7.7373 14.8135 7.91602 14.7402 8.12109 14.7402C8.33203 14.7402 8.51074 14.8135 8.65723 14.96C8.80371 15.1123 8.87695 15.291 8.87695 15.4961C8.87695 15.707 8.80371 15.8857 8.65723 16.0322C8.51074 16.1787 8.33203 16.252 8.12109 16.252ZM5.37891 16.252C5.17383 16.252 4.99512 16.1787 4.84277 16.0322C4.69629 15.8857 4.62305 15.707 4.62305 15.4961C4.62305 15.291 4.69629 15.1123 4.84277 14.96C4.99512 14.8135 5.17383 14.7402 5.37891 14.7402C5.58984 14.7402 5.76855 14.8135 5.91504 14.96C6.06152 15.1123 6.13477 15.291 6.13477 15.4961C6.13477 15.707 6.06152 15.8857 5.91504 16.0322C5.76855 16.1787 5.58984 16.252 5.37891 16.252ZM2.63672 16.252C2.43164 16.252 2.25293 16.1787 2.10059 16.0322C1.9541 15.8857 1.88086 15.707 1.88086 15.4961C1.88086 15.291 1.9541 15.1123 2.10059 14.96C2.25293 14.8135 2.43164 14.7402 2.63672 14.7402C2.84766 14.7402 3.02637 14.8135 3.17285 14.96C3.31934 15.1123 3.39258 15.291 3.39258 15.4961C3.39258 15.707 3.31934 15.8857 3.17285 16.0322C3.02637 16.1787 2.84766 16.252 2.63672 16.252ZM0.755859 14.3711C0.550781 14.3711 0.37207 14.2979 0.219727 14.1514C0.0732422 13.999 0 13.8203 0 13.6152C0 13.4102 0.0732422 13.2344 0.219727 13.0879C0.37207 12.9355 0.550781 12.8594 0.755859 12.8594C0.960938 12.8594 1.13672 12.9355 1.2832 13.0879C1.43555 13.2344 1.51172 13.4102 1.51172 13.6152C1.51172 13.8203 1.43555 13.999 1.2832 14.1514C1.13672 14.2979 0.960938 14.3711 0.755859 14.3711ZM0.755859 11.6289C0.550781 11.6289 0.37207 11.5557 0.219727 11.4092C0.0732422 11.2568 0 11.0781 0 10.873C0 10.668 0.0732422 10.4922 0.219727 10.3457C0.37207 10.1934 0.550781 10.1172 0.755859 10.1172C0.960938 10.1172 1.13672 10.1934 1.2832 10.3457C1.43555 10.4922 1.51172 10.668 1.51172 10.873C1.51172 11.0781 1.43555 11.2568 1.2832 11.4092C1.13672 11.5557 0.960938 11.6289 0.755859 11.6289ZM0.755859 8.88672C0.550781 8.88672 0.37207 8.81348 0.219727 8.66699C0.0732422 8.51465 0 8.33594 0 8.13086C0 7.92578 0.0732422 7.75 0.219727 7.60352C0.37207 7.45117 0.550781 7.375 0.755859 7.375C0.960938 7.375 1.13672 7.45117 1.2832 7.60352C1.43555 7.75 1.51172 7.92578 1.51172 8.13086C1.51172 8.33594 1.43555 8.51465 1.2832 8.66699C1.13672 8.81348 0.960938 8.88672 0.755859 8.88672ZM0.755859 6.14453C0.550781 6.14453 0.37207 6.07129 0.219727 5.9248C0.0732422 5.77246 0 5.59375 0 5.38867C0 5.17773 0.0732422 4.99902 0.219727 4.85254C0.37207 4.70605 0.550781 4.63281 0.755859 4.63281C0.960938 4.63281 1.13672 4.70605 1.2832 4.85254C1.43555 4.99902 1.51172 5.17773 1.51172 5.38867C1.51172 5.59375 1.43555 5.77246 1.2832 5.9248C1.13672 6.07129 0.960938 6.14453 0.755859 6.14453ZM0.755859 3.40234C0.550781 3.40234 0.37207 3.3291 0.219727 3.18262C0.0732422 3.03027 0 2.85156 0 2.64648C0 2.43555 0.0732422 2.25684 0.219727 2.11035C0.37207 1.96387 0.550781 1.89062 0.755859 1.89062C0.960938 1.89062 1.13672 1.96387 1.2832 2.11035C1.43555 2.25684 1.51172 2.43555 1.51172 2.64648C1.51172 2.85156 1.43555 3.03027 1.2832 3.18262C1.13672 3.3291 0.960938 3.40234 0.755859 3.40234Z" fill="#333333"/>
</svg>
