<svg width="18" height="18" viewBox="0 0 18 18" fill="none" xmlns="http://www.w3.org/2000/svg">
<path d="M15.5566 17.0332L4.32422 5.79199C4.13086 5.59277 4.03418 5.36133 4.03418 5.09766C4.03418 4.82812 4.12793 4.59668 4.31543 4.40332C4.49707 4.2041 4.72559 4.10449 5.00098 4.10449C5.28223 4.10449 5.51953 4.2041 5.71289 4.40332L16.9453 15.6357C17.1387 15.8408 17.2354 16.0752 17.2354 16.3389C17.2354 16.6025 17.1416 16.834 16.9541 17.0332C16.7725 17.2266 16.541 17.3232 16.2598 17.3232C15.9844 17.3291 15.75 17.2324 15.5566 17.0332ZM7.94531 8.46387L8.38477 8.04199L5.35254 5.00098C5.29395 4.94238 5.2207 4.91309 5.13281 4.91309C5.05078 4.91309 4.98047 4.94238 4.92188 5.00098C4.85742 5.06543 4.8252 5.13867 4.8252 5.2207C4.8252 5.30273 4.85742 5.37305 4.92188 5.43164L7.94531 8.46387ZM12.2959 6.36328C12.2197 6.36328 12.1582 6.34277 12.1113 6.30176C12.0645 6.26074 12.0381 6.20508 12.0322 6.13477C11.9561 5.64258 11.8652 5.23828 11.7598 4.92188C11.6602 4.60547 11.5166 4.35059 11.3291 4.15723C11.1475 3.96387 10.8984 3.81445 10.582 3.70898C10.2656 3.60352 9.85254 3.5127 9.34277 3.43652C9.18457 3.40723 9.10547 3.3252 9.10547 3.19043C9.10547 3.03809 9.18457 2.9502 9.34277 2.92676C9.85254 2.85059 10.2627 2.75977 10.5732 2.6543C10.8838 2.54297 11.127 2.39355 11.3027 2.20605C11.4844 2.0127 11.625 1.75781 11.7246 1.44141C11.8301 1.125 11.9326 0.720703 12.0322 0.228516C12.0615 0.0761719 12.1494 0 12.2959 0C12.4307 0 12.5127 0.0791016 12.542 0.237305C12.6182 0.717773 12.7061 1.11621 12.8057 1.43262C12.9111 1.74316 13.0547 1.99512 13.2363 2.18848C13.4238 2.38184 13.6758 2.53418 13.9922 2.64551C14.3145 2.75684 14.7305 2.85059 15.2402 2.92676C15.3926 2.9502 15.4688 3.03809 15.4688 3.19043C15.4688 3.33105 15.3926 3.41309 15.2402 3.43652C14.7305 3.5127 14.3174 3.60645 14.001 3.71777C13.6904 3.82324 13.4443 3.97266 13.2627 4.16602C13.0869 4.35352 12.9463 4.6084 12.8408 4.93066C12.7412 5.24707 12.6416 5.65137 12.542 6.14355C12.5303 6.20801 12.501 6.26074 12.4541 6.30176C12.4072 6.34277 12.3545 6.36328 12.2959 6.36328ZM2.49609 13.5703C2.36719 13.5703 2.29102 13.5 2.26758 13.3594C2.20312 12.9434 2.1416 12.6152 2.08301 12.375C2.02441 12.1289 1.93359 11.9414 1.81055 11.8125C1.69336 11.6836 1.50879 11.584 1.25684 11.5137C1.01074 11.4434 0.662109 11.373 0.210938 11.3027C0.0703125 11.2793 0 11.2031 0 11.0742C0 10.9395 0.0703125 10.8633 0.210938 10.8457C0.662109 10.7754 1.01074 10.7051 1.25684 10.6348C1.50879 10.5645 1.69336 10.4648 1.81055 10.3359C1.93359 10.2012 2.02441 10.0137 2.08301 9.77344C2.1416 9.52734 2.20312 9.19922 2.26758 8.78906C2.29102 8.64844 2.36719 8.57812 2.49609 8.57812C2.63086 8.57812 2.70996 8.64844 2.7334 8.78906C2.79785 9.19922 2.85938 9.52734 2.91797 9.77344C2.97656 10.0137 3.06445 10.2012 3.18164 10.3359C3.30469 10.4648 3.48926 10.5645 3.73535 10.6348C3.9873 10.7051 4.33887 10.7754 4.79004 10.8457C4.93066 10.8633 5.00098 10.9395 5.00098 11.0742C5.00098 11.2031 4.93066 11.2793 4.79004 11.3027C4.33887 11.373 3.9873 11.4434 3.73535 11.5137C3.48926 11.584 3.30469 11.6836 3.18164 11.8125C3.06445 11.9414 2.97656 12.1289 2.91797 12.375C2.85938 12.6152 2.79785 12.9434 2.7334 13.3594C2.70996 13.5 2.63086 13.5703 2.49609 13.5703ZM5.43164 16.0488C5.33203 16.0488 5.26465 15.9873 5.22949 15.8643C5.15918 15.542 5.10059 15.3076 5.05371 15.1611C5.00684 15.0088 4.91016 14.9033 4.76367 14.8447C4.62305 14.7803 4.36816 14.7129 3.99902 14.6426C3.88184 14.6191 3.82324 14.5518 3.82324 14.4404C3.82324 14.3291 3.88477 14.2617 4.00781 14.2383C4.37109 14.1797 4.62598 14.1211 4.77246 14.0625C4.91895 13.998 5.0127 13.8926 5.05371 13.7461C5.10059 13.5938 5.15918 13.3535 5.22949 13.0254C5.26465 12.8965 5.33203 12.832 5.43164 12.832C5.54297 12.832 5.61035 12.8906 5.63379 13.0078C5.69238 13.3418 5.74512 13.585 5.79199 13.7373C5.83887 13.8838 5.93555 13.9863 6.08203 14.0449C6.23438 14.1035 6.49512 14.168 6.86426 14.2383C6.98145 14.2617 7.04004 14.3291 7.04004 14.4404C7.04004 14.5518 6.98145 14.6191 6.86426 14.6426C6.49512 14.7129 6.23438 14.7803 6.08203 14.8447C5.92969 14.9033 5.83008 15.0088 5.7832 15.1611C5.73633 15.3076 5.68652 15.542 5.63379 15.8643C5.61035 15.9873 5.54297 16.0488 5.43164 16.0488Z" fill="#CCCCCC"/>
</svg>
