<svg width="13" height="3" viewBox="0 0 13 3" fill="none" xmlns="http://www.w3.org/2000/svg">
<path d="M1.29883 2.59082C1.05729 2.59082 0.838542 2.53385 0.642578 2.41992C0.446615 2.30143 0.289388 2.14421 0.170898 1.94824C0.0569661 1.75228 0 1.53581 0 1.29883C0 1.05729 0.0569661 0.838542 0.170898 0.642578C0.289388 0.446615 0.446615 0.291667 0.642578 0.177734C0.838542 0.0592448 1.05729 0 1.29883 0C1.53581 0 1.75228 0.0592448 1.94824 0.177734C2.14421 0.291667 2.29915 0.446615 2.41309 0.642578C2.53158 0.838542 2.59082 1.05729 2.59082 1.29883C2.59082 1.53581 2.53158 1.75228 2.41309 1.94824C2.29915 2.14421 2.14421 2.30143 1.94824 2.41992C1.75228 2.53385 1.53581 2.59082 1.29883 2.59082ZM6.37793 2.59082C6.13639 2.59082 5.91764 2.53385 5.72168 2.41992C5.52572 2.30143 5.36849 2.14421 5.25 1.94824C5.13607 1.75228 5.0791 1.53581 5.0791 1.29883C5.0791 1.05729 5.13607 0.838542 5.25 0.642578C5.36849 0.446615 5.52572 0.291667 5.72168 0.177734C5.91764 0.0592448 6.13639 0 6.37793 0C6.61491 0 6.83138 0.0592448 7.02734 0.177734C7.22331 0.291667 7.37826 0.446615 7.49219 0.642578C7.61068 0.838542 7.66992 1.05729 7.66992 1.29883C7.66992 1.53581 7.61068 1.75228 7.49219 1.94824C7.37826 2.14421 7.22331 2.30143 7.02734 2.41992C6.83138 2.53385 6.61491 2.59082 6.37793 2.59082ZM11.457 2.59082C11.2155 2.59082 10.9967 2.53385 10.8008 2.41992C10.6048 2.30143 10.4476 2.14421 10.3291 1.94824C10.2152 1.75228 10.1582 1.53581 10.1582 1.29883C10.1582 1.05729 10.2152 0.838542 10.3291 0.642578C10.4476 0.446615 10.6048 0.291667 10.8008 0.177734C10.9967 0.0592448 11.2155 0 11.457 0C11.694 0 11.9105 0.0592448 12.1064 0.177734C12.3024 0.291667 12.4596 0.446615 12.5781 0.642578C12.6966 0.838542 12.7559 1.05729 12.7559 1.29883C12.7559 1.53581 12.6966 1.75228 12.5781 1.94824C12.4596 2.14421 12.3024 2.30143 12.1064 2.41992C11.9105 2.53385 11.694 2.59082 11.457 2.59082Z" fill="#CCCCCC"/>
</svg>
