<svg width="12" height="16" viewBox="0 0 12 16" fill="none" xmlns="http://www.w3.org/2000/svg">
<path d="M5.29102 11.2236L2.00391 14.502C1.78711 14.7188 1.56152 14.8564 1.32715 14.915C1.09277 14.9795 0.875977 14.9795 0.676758 14.915C0.477539 14.8506 0.313477 14.7305 0.18457 14.5547C0.0615234 14.3789 0 14.1621 0 13.9043V1.23926C0 0.952148 0.0644531 0.711914 0.193359 0.518555C0.328125 0.325195 0.498047 0.19043 0.703125 0.114258C0.914062 0.0380859 1.13379 0.0263672 1.3623 0.0791016C1.59082 0.125977 1.80469 0.249023 2.00391 0.448242L10.9336 9.37793C11.1152 9.56543 11.2236 9.76465 11.2588 9.97559C11.2939 10.1865 11.2617 10.3887 11.1621 10.582C11.0684 10.7695 10.916 10.9248 10.7051 11.0479C10.5 11.165 10.2422 11.2236 9.93164 11.2236H5.29102Z" fill="white"/>
</svg>
