<svg width="18" height="20" viewBox="0 0 18 20" fill="none" xmlns="http://www.w3.org/2000/svg">
<path d="M13.5088 12.4014L14.8799 11.5049L16.9717 12.7266C17.3291 12.9375 17.584 13.1338 17.7363 13.3154C17.8887 13.4912 17.9648 13.6992 17.9648 13.9395C17.9648 14.1855 17.8887 14.3994 17.7363 14.5811C17.584 14.7568 17.3291 14.9502 16.9717 15.1611L10.0986 19.1514C9.8877 19.2744 9.69141 19.3652 9.50977 19.4238C9.33398 19.4824 9.1582 19.5117 8.98242 19.5117C8.80078 19.5117 8.62207 19.4824 8.44629 19.4238C8.27051 19.3652 8.07715 19.2744 7.86621 19.1514L0.984375 15.1611C0.632812 14.9502 0.380859 14.7568 0.228516 14.5811C0.0761719 14.3994 0 14.1855 0 13.9395C0 13.6992 0.0761719 13.4912 0.228516 13.3154C0.380859 13.1338 0.632812 12.9375 0.984375 12.7266L3.18164 11.4521L4.6582 12.2871L1.89844 13.8604C1.85742 13.8838 1.83691 13.9102 1.83691 13.9395C1.83691 13.9746 1.85742 14.0039 1.89844 14.0273L8.58691 17.8594C8.7334 17.9414 8.86523 17.9824 8.98242 17.9824C9.09375 17.9824 9.22266 17.9414 9.36914 17.8594L16.0576 14.0273C16.1045 14.0039 16.1279 13.9746 16.1279 13.9395C16.1279 13.9102 16.1045 13.8838 16.0576 13.8604L13.5088 12.4014ZM13.3154 8.24414L14.6777 7.33887L16.9717 8.6748C17.3291 8.88574 17.584 9.08203 17.7363 9.26367C17.8887 9.44531 17.9648 9.65625 17.9648 9.89648C17.9648 10.1367 17.8887 10.3477 17.7363 10.5293C17.584 10.7109 17.3291 10.9043 16.9717 11.1094L10.0986 15.1084C9.8877 15.2314 9.69141 15.3223 9.50977 15.3809C9.33398 15.4395 9.1582 15.4688 8.98242 15.4688C8.80078 15.4688 8.62207 15.4395 8.44629 15.3809C8.27051 15.3223 8.07715 15.2314 7.86621 15.1084L0.984375 11.1094C0.632812 10.9043 0.380859 10.7109 0.228516 10.5293C0.0761719 10.3477 0 10.1367 0 9.89648C0 9.65625 0.0761719 9.44531 0.228516 9.26367C0.380859 9.08203 0.632812 8.88574 0.984375 8.6748L3.4541 7.25098L4.86035 8.1123L1.89844 9.80859C1.85742 9.83203 1.83691 9.86133 1.83691 9.89648C1.83691 9.93164 1.85742 9.96094 1.89844 9.98438L8.58691 13.8076C8.7334 13.8896 8.86523 13.9307 8.98242 13.9307C9.09375 13.9307 9.22266 13.8896 9.36914 13.8076L16.0576 9.98438C16.1045 9.96094 16.1279 9.93164 16.1279 9.89648C16.1279 9.86133 16.1045 9.83203 16.0576 9.80859L13.3154 8.24414ZM8.98242 11.1357C8.80078 11.1357 8.62207 11.1064 8.44629 11.0479C8.27051 10.9893 8.07715 10.8984 7.86621 10.7754L0.984375 6.78516C0.632812 6.57422 0.380859 6.38086 0.228516 6.20508C0.0761719 6.02344 0 5.80957 0 5.56348C0 5.32324 0.0761719 5.11523 0.228516 4.93945C0.380859 4.75781 0.632812 4.56152 0.984375 4.35059L7.86621 0.360352C8.07715 0.237305 8.27051 0.146484 8.44629 0.0878906C8.62207 0.0292969 8.80078 0 8.98242 0C9.1582 0 9.33398 0.0292969 9.50977 0.0878906C9.69141 0.146484 9.8877 0.237305 10.0986 0.360352L16.9717 4.35059C17.3291 4.56152 17.584 4.75781 17.7363 4.93945C17.8887 5.11523 17.9648 5.32324 17.9648 5.56348C17.9648 5.80957 17.8887 6.02344 17.7363 6.20508C17.584 6.38086 17.3291 6.57422 16.9717 6.78516L10.0986 10.7754C9.8877 10.8984 9.69141 10.9893 9.50977 11.0479C9.33398 11.1064 9.1582 11.1357 8.98242 11.1357Z" fill="#B2B2B2"/>
</svg>
