<svg width="17" height="19" viewBox="0 0 17 19" fill="none" xmlns="http://www.w3.org/2000/svg">
<path fill-rule="evenodd" clip-rule="evenodd" d="M7.73633 0.100603C7.96838 -0.0333716 8.25428 -0.0333716 8.48633 0.100603L15.8477 4.3506C16.0796 4.4846 16.2227 4.73214 16.2227 5.00002V13.5C16.2226 13.7679 16.0796 14.0155 15.8477 14.1494L8.48633 18.3994C8.2543 18.5334 7.96836 18.5334 7.73633 18.3994L0.375 14.1494C0.143056 14.0155 3.73319e-05 13.7679 0 13.5V5.00002C0 4.73214 0.143052 4.4846 0.375 4.3506L7.73633 0.100603ZM8.76172 9.69631V16.5078L14.7227 13.0664V6.2549L8.76172 9.69631ZM1.5 13.0664L7.26172 16.3926V9.66896L1.5 6.34279V13.0664ZM2.21094 5.0215L8.03516 8.38381L13.9346 4.97756L8.11133 1.61525L2.21094 5.0215Z" fill="#333333"/>
</svg>
