<svg width="17" height="13" viewBox="0 0 17 13" fill="none" xmlns="http://www.w3.org/2000/svg">
<path d="M2.09863 12.1064C1.58822 12.1064 1.2054 11.9492 0.950195 11.6348C0.694987 11.3249 0.55599 10.86 0.533203 10.2402L3.1377 7.88867C3.27897 7.75651 3.42253 7.66081 3.56836 7.60156C3.71419 7.53776 3.86458 7.50586 4.01953 7.50586C4.17904 7.50586 4.33626 7.54004 4.49121 7.6084C4.65072 7.6722 4.80111 7.7679 4.94238 7.89551L6.20703 9.03711L9.29688 6.27539C9.45638 6.13867 9.62044 6.03613 9.78906 5.96777C9.95768 5.89941 10.1354 5.86523 10.3223 5.86523C10.5091 5.86523 10.6891 5.90169 10.8623 5.97461C11.04 6.04297 11.2041 6.14779 11.3545 6.28906L15.415 10.1035C15.415 10.7598 15.2601 11.2565 14.9502 11.5938C14.6403 11.9355 14.1755 12.1064 13.5557 12.1064H2.09863ZM5.09277 6.35742C4.79655 6.35742 4.52539 6.28678 4.2793 6.14551C4.03776 5.99967 3.84408 5.80371 3.69824 5.55762C3.55241 5.31152 3.47949 5.04036 3.47949 4.74414C3.47949 4.45247 3.55241 4.18359 3.69824 3.9375C3.84408 3.69141 4.03776 3.49544 4.2793 3.34961C4.52539 3.20378 4.79655 3.13086 5.09277 3.13086C5.389 3.13086 5.65788 3.20378 5.89941 3.34961C6.14095 3.49544 6.33464 3.69141 6.48047 3.9375C6.6263 4.18359 6.69922 4.45247 6.69922 4.74414C6.69922 5.04036 6.6263 5.31152 6.48047 5.55762C6.33464 5.80371 6.14095 5.99967 5.89941 6.14551C5.65788 6.28678 5.389 6.35742 5.09277 6.35742ZM2.14648 12.585C1.43099 12.585 0.893229 12.4072 0.533203 12.0518C0.177734 11.7008 0 11.1745 0 10.4727V2.11914C0 1.41276 0.177734 0.884115 0.533203 0.533203C0.893229 0.177734 1.43099 0 2.14648 0H13.9727C14.6927 0 15.2305 0.177734 15.5859 0.533203C15.9414 0.888672 16.1191 1.41732 16.1191 2.11914V10.4727C16.1191 11.1745 15.9414 11.7008 15.5859 12.0518C15.2305 12.4072 14.6927 12.585 13.9727 12.585H2.14648ZM2.16016 11.4844H13.959C14.2962 11.4844 14.556 11.3955 14.7383 11.2178C14.9251 11.0355 15.0186 10.7666 15.0186 10.4111V2.18066C15.0186 1.8252 14.9251 1.55632 14.7383 1.37402C14.556 1.19173 14.2962 1.10059 13.959 1.10059H2.16016C1.81836 1.10059 1.55632 1.19173 1.37402 1.37402C1.19173 1.55632 1.10059 1.8252 1.10059 2.18066V10.4111C1.10059 10.7666 1.19173 11.0355 1.37402 11.2178C1.55632 11.3955 1.81836 11.4844 2.16016 11.4844Z" fill="black"/>
</svg>
