<svg width="15" height="15" viewBox="0 0 15 15" fill="none" xmlns="http://www.w3.org/2000/svg">
<path d="M0 7.30762C0 6.20931 0.175456 5.21126 0.526367 4.31348C0.877279 3.41569 1.37402 2.64551 2.0166 2.00293C2.65918 1.36035 3.42025 0.865885 4.2998 0.519531C5.18392 0.173177 6.1569 0 7.21875 0C8.23047 0 9.16016 0.154948 10.0078 0.464844C10.8555 0.770182 11.5892 1.21224 12.209 1.79102C12.8333 2.36523 13.3164 3.05566 13.6582 3.8623C14.0046 4.66439 14.1777 5.5599 14.1777 6.54883C14.1777 7.42383 14.0524 8.20085 13.8018 8.87988C13.5511 9.55436 13.1956 10.0853 12.7354 10.4727C12.2751 10.8555 11.7259 11.0469 11.0879 11.0469C10.5456 11.0469 10.0876 10.9079 9.71387 10.6299C9.34473 10.3519 9.12826 9.97363 9.06445 9.49512H9.00293C8.80241 9.97819 8.50391 10.3564 8.10742 10.6299C7.71549 10.9033 7.25521 11.04 6.72656 11.04C6.125 11.04 5.59635 10.8828 5.14062 10.5684C4.6849 10.2539 4.32715 9.81868 4.06738 9.2627C3.81217 8.70215 3.68457 8.05729 3.68457 7.32812C3.68457 6.60807 3.81217 5.97233 4.06738 5.4209C4.32715 4.86491 4.68262 4.43197 5.13379 4.12207C5.58952 3.80762 6.11133 3.65039 6.69922 3.65039C7.20508 3.65039 7.65625 3.77572 8.05273 4.02637C8.45378 4.27246 8.74316 4.60514 8.9209 5.02441H8.98242V4.24512C8.98242 4.06283 9.03027 3.91927 9.12598 3.81445C9.22624 3.70508 9.36296 3.65039 9.53613 3.65039C9.70931 3.65039 9.84375 3.70508 9.93945 3.81445C10.0397 3.91927 10.0898 4.06283 10.0898 4.24512V8.87988C10.0898 9.25358 10.1924 9.54525 10.3975 9.75488C10.6025 9.95996 10.8919 10.0625 11.2656 10.0625C11.6393 10.0625 11.9629 9.91667 12.2363 9.625C12.5098 9.33333 12.7194 8.92773 12.8652 8.4082C13.0156 7.88867 13.0908 7.28483 13.0908 6.59668C13.0908 5.70801 12.9359 4.92188 12.626 4.23828C12.3206 3.55013 11.8945 2.97135 11.3477 2.50195C10.8053 2.03255 10.1787 1.67708 9.46777 1.43555C8.76139 1.19401 8.00716 1.07324 7.20508 1.07324C6.29818 1.07324 5.47559 1.22591 4.7373 1.53125C3.99902 1.83659 3.36328 2.26953 2.83008 2.83008C2.30143 3.38607 1.89355 4.04688 1.60645 4.8125C1.31934 5.57812 1.17578 6.4235 1.17578 7.34863C1.17578 8.31478 1.32617 9.17611 1.62695 9.93262C1.93229 10.6891 2.36296 11.3317 2.91895 11.8604C3.47493 12.3844 4.13802 12.7832 4.9082 13.0566C5.67839 13.3301 6.5306 13.4668 7.46484 13.4668C7.94792 13.4668 8.38314 13.4349 8.77051 13.3711C9.15788 13.3073 9.5612 13.2253 9.98047 13.125C10.0488 13.1068 10.1081 13.0931 10.1582 13.084C10.2129 13.0794 10.2607 13.0771 10.3018 13.0771C10.4294 13.0771 10.5365 13.1204 10.623 13.207C10.7096 13.2936 10.7529 13.3984 10.7529 13.5215C10.7529 13.6491 10.7074 13.7699 10.6162 13.8838C10.5296 14.0023 10.3678 14.098 10.1309 14.1709C9.79818 14.2803 9.37435 14.3691 8.85938 14.4375C8.34896 14.5104 7.8112 14.5469 7.24609 14.5469C6.19792 14.5469 5.23177 14.3805 4.34766 14.0479C3.4681 13.7197 2.70247 13.2412 2.05078 12.6123C1.39909 11.988 0.893229 11.2292 0.533203 10.3359C0.177734 9.44271 0 8.43327 0 7.30762ZM6.91113 9.95996C7.32585 9.95996 7.68587 9.85059 7.99121 9.63184C8.30111 9.40853 8.54036 9.09863 8.70898 8.70215C8.88216 8.30111 8.96875 7.83171 8.96875 7.29395C8.96875 6.50098 8.78418 5.87207 8.41504 5.40723C8.0459 4.94238 7.54688 4.70996 6.91797 4.70996C6.50781 4.70996 6.15234 4.81706 5.85156 5.03125C5.55534 5.24544 5.32292 5.5485 5.1543 5.94043C4.99023 6.33236 4.9082 6.79264 4.9082 7.32129C4.9082 7.85905 4.99023 8.32617 5.1543 8.72266C5.31836 9.11458 5.5485 9.41992 5.84473 9.63867C6.14551 9.85286 6.50098 9.95996 6.91113 9.95996Z" fill="black"/>
</svg>
