<svg width="18" height="22" viewBox="0 0 18 22" fill="none" xmlns="http://www.w3.org/2000/svg">
<path d="M12.7705 3.55957C12.7705 3.84082 12.6768 4.01367 12.4893 4.07812C12.3076 4.14258 12.1084 4.0957 11.8916 3.9375L9.8877 2.47852C9.71777 2.34961 9.63281 2.2207 9.63281 2.0918C9.63867 1.95703 9.72363 1.82812 9.8877 1.70508L11.8916 0.237305C12.1084 0.0791016 12.3076 0.0322266 12.4893 0.0966797C12.6768 0.161133 12.7705 0.339844 12.7705 0.632812V3.55957ZM11.5312 1.66992H12.9287C13.667 1.66992 14.3145 1.82227 14.8711 2.12695C15.4277 2.43164 15.8584 2.8623 16.1631 3.41895C16.4678 3.96973 16.6201 4.61719 16.6201 5.36133V6.43359C16.6201 6.56836 16.5703 6.68848 16.4707 6.79395C16.3711 6.89355 16.2568 6.94336 16.1279 6.94336C15.9932 6.94336 15.873 6.89355 15.7676 6.79395C15.668 6.68848 15.6182 6.56836 15.6182 6.43359V5.36133C15.6182 4.81055 15.5068 4.32715 15.2842 3.91113C15.0615 3.49512 14.748 3.17285 14.3438 2.94434C13.9395 2.70996 13.4648 2.59277 12.9199 2.59277H11.5312C11.4023 2.59277 11.2939 2.54883 11.2061 2.46094C11.1182 2.36719 11.0742 2.25586 11.0742 2.12695C11.0742 1.99805 11.1182 1.88965 11.2061 1.80176C11.2939 1.71387 11.4023 1.66992 11.5312 1.66992ZM4.48242 17.9648C4.48242 17.6836 4.57324 17.5107 4.75488 17.4463C4.94238 17.3818 5.14453 17.4316 5.36133 17.5957L7.36523 19.0547C7.53516 19.1777 7.61719 19.3066 7.61133 19.4414C7.61133 19.5762 7.5293 19.7051 7.36523 19.8281L5.36133 21.2871C5.14453 21.4512 4.94238 21.501 4.75488 21.4365C4.57324 21.3721 4.48242 21.1934 4.48242 20.9004V17.9648ZM5.72168 19.8633H4.32422C3.58594 19.8633 2.93848 19.708 2.38184 19.3975C1.8252 19.0928 1.39453 18.6621 1.08984 18.1055C0.785156 17.5547 0.632812 16.9102 0.632812 16.1719V15.0996C0.632812 14.959 0.682617 14.8389 0.782227 14.7393C0.881836 14.6396 0.996094 14.5898 1.125 14.5898C1.25977 14.5898 1.37695 14.6396 1.47656 14.7393C1.58203 14.8389 1.63477 14.959 1.63477 15.0996V16.1631C1.63477 16.7197 1.74609 17.2061 1.96875 17.6221C2.19141 18.0381 2.50488 18.3604 2.90918 18.5889C3.31348 18.8232 3.78809 18.9404 4.33301 18.9404H5.72168C5.85059 18.9404 5.95898 18.9844 6.04688 19.0723C6.13477 19.166 6.17871 19.2773 6.17871 19.4062C6.17871 19.5293 6.13477 19.6348 6.04688 19.7227C5.95898 19.8164 5.85059 19.8633 5.72168 19.8633ZM17.2002 14.1328C17.2002 14.332 17.1357 14.4932 17.0068 14.6162C16.8779 14.7334 16.7109 14.792 16.5059 14.792H5.18555C4.96875 14.792 4.7959 14.7305 4.66699 14.6074C4.54395 14.4785 4.48242 14.3086 4.48242 14.0977V2.94434C4.48242 2.72168 4.54688 2.54297 4.67578 2.4082C4.80469 2.27344 4.97754 2.20605 5.19434 2.20605C5.40527 2.20605 5.5752 2.27344 5.7041 2.4082C5.83301 2.54297 5.89746 2.72168 5.89746 2.94434V13.21C5.89746 13.3799 5.98242 13.4648 6.15234 13.4648H16.5059C16.7109 13.4648 16.8779 13.5264 17.0068 13.6494C17.1357 13.7725 17.2002 13.9336 17.2002 14.1328ZM0 7.34766C0 7.14844 0.0615234 6.9873 0.18457 6.86426C0.313477 6.74121 0.480469 6.67969 0.685547 6.67969H12.0674C12.2783 6.67969 12.4482 6.74414 12.5771 6.87305C12.7061 7.00195 12.7705 7.17188 12.7705 7.38281V18.5889C12.7705 18.8057 12.7031 18.9814 12.5684 19.1162C12.4395 19.2568 12.2695 19.3271 12.0586 19.3271C11.8477 19.3271 11.6777 19.2568 11.5488 19.1162C11.4199 18.9814 11.3555 18.8057 11.3555 18.5889V8.26172C11.3555 8.0918 11.2705 8.00684 11.1006 8.00684H0.685547C0.480469 8.00684 0.313477 7.94824 0.18457 7.83105C0.0615234 7.70801 0 7.54688 0 7.34766Z" fill="#333333"/>
</svg>
