<svg width="15" height="13" viewBox="0 0 15 13" fill="none" xmlns="http://www.w3.org/2000/svg">
<path d="M8.53125 0.430664C8.53125 0.289388 8.56999 0.182292 8.64746 0.109375C8.72493 0.0364583 8.83203 0 8.96875 0C9.03255 0 9.09408 0.0113932 9.15332 0.0341797C9.21712 0.0524089 9.27409 0.0820312 9.32422 0.123047L11.9082 2.26953C12.0221 2.36523 12.0768 2.47461 12.0723 2.59766C12.0723 2.7207 12.0176 2.8278 11.9082 2.91895L9.32422 5.05859C9.27409 5.09961 9.21712 5.13151 9.15332 5.1543C9.09408 5.17708 9.03255 5.18848 8.96875 5.18848C8.83203 5.18848 8.72493 5.15202 8.64746 5.0791C8.56999 5.00163 8.53125 4.89453 8.53125 4.75781V0.430664ZM0.574219 6.32324C0.414714 6.32324 0.277995 6.26855 0.164062 6.15918C0.0546875 6.04525 0 5.90625 0 5.74219V5.01074C0 4.39551 0.13444 3.86458 0.40332 3.41797C0.672201 2.97135 1.05273 2.62728 1.54492 2.38574C2.04167 2.13965 2.62956 2.0166 3.30859 2.0166H9.54297C9.69792 2.0166 9.83008 2.07357 9.93945 2.1875C10.0534 2.29688 10.1104 2.42904 10.1104 2.58398C10.1104 2.73893 10.0534 2.87337 9.93945 2.9873C9.83008 3.09668 9.69792 3.15137 9.54297 3.15137H3.19922C2.57943 3.15137 2.08268 3.3291 1.70898 3.68457C1.33984 4.03548 1.15527 4.50488 1.15527 5.09277V5.74219C1.15527 5.90625 1.09831 6.04525 0.984375 6.15918C0.875 6.26855 0.738281 6.32324 0.574219 6.32324ZM6.05664 11.7305C6.05664 11.8672 6.0179 11.972 5.94043 12.0449C5.86751 12.1224 5.76042 12.1611 5.61914 12.1611C5.55534 12.1611 5.49154 12.1497 5.42773 12.127C5.36849 12.1042 5.3138 12.0723 5.26367 12.0312L2.67969 9.88477C2.56576 9.79362 2.50879 9.68652 2.50879 9.56348C2.51335 9.43587 2.57031 9.3265 2.67969 9.23535L5.26367 7.0957C5.3138 7.05469 5.36849 7.02507 5.42773 7.00684C5.49154 6.98405 5.55534 6.97266 5.61914 6.97266C5.76042 6.97266 5.86751 7.00911 5.94043 7.08203C6.0179 7.15495 6.05664 7.26204 6.05664 7.40332V11.7305ZM14.0137 5.83789C14.1777 5.83789 14.3145 5.89486 14.4238 6.00879C14.5332 6.11816 14.5879 6.25488 14.5879 6.41895V7.15039C14.5879 7.76107 14.4535 8.29199 14.1846 8.74316C13.9157 9.18978 13.5329 9.53613 13.0361 9.78223C12.5439 10.0238 11.9583 10.1445 11.2793 10.1445H5.05176C4.89225 10.1445 4.75553 10.0898 4.6416 9.98047C4.53223 9.86654 4.47754 9.72982 4.47754 9.57031C4.47754 9.41536 4.53223 9.2832 4.6416 9.17383C4.75553 9.0599 4.89225 9.00293 5.05176 9.00293H11.3887C12.0085 9.00293 12.5052 8.82747 12.8789 8.47656C13.2526 8.12109 13.4395 7.65169 13.4395 7.06836V6.41895C13.4395 6.25488 13.4941 6.11816 13.6035 6.00879C13.7129 5.89486 13.8496 5.83789 14.0137 5.83789Z" fill="black"/>
</svg>
