<svg width="13" height="15" viewBox="0 0 13 15" fill="none" xmlns="http://www.w3.org/2000/svg">
<path d="M6.10449 14.8408C5.26139 14.8408 4.4707 14.6836 3.73242 14.3691C2.99414 14.0547 2.34473 13.6172 1.78418 13.0566C1.22819 12.4961 0.79069 11.849 0.47168 11.1152C0.157227 10.377 0 9.58398 0 8.73633C0 8.54948 0.0638021 8.39225 0.191406 8.26465C0.323568 8.13249 0.483073 8.06641 0.669922 8.06641C0.856771 8.06641 1.014 8.13249 1.1416 8.26465C1.27376 8.39225 1.33984 8.54948 1.33984 8.73633C1.33984 9.39258 1.46289 10.0101 1.70898 10.5889C1.95964 11.1631 2.30143 11.6689 2.73438 12.1064C3.17188 12.5394 3.67773 12.8789 4.25195 13.125C4.83073 13.3711 5.44824 13.4941 6.10449 13.4941C6.76074 13.4941 7.37598 13.3711 7.9502 13.125C8.52897 12.8789 9.03483 12.5394 9.46777 12.1064C9.90527 11.6689 10.2471 11.1631 10.4932 10.5889C10.7393 10.0101 10.8623 9.39258 10.8623 8.73633C10.8623 8.08008 10.7393 7.46484 10.4932 6.89062C10.2471 6.31185 9.90527 5.80371 9.46777 5.36621C9.03483 4.92871 8.52897 4.58691 7.9502 4.34082C7.37598 4.09473 6.76074 3.97168 6.10449 3.97168C5.82194 3.97168 5.54622 3.99674 5.27734 4.04688C5.00846 4.09245 4.7487 4.16081 4.49805 4.25195C4.36133 4.30208 4.22233 4.3112 4.08105 4.2793C3.93978 4.2474 3.82129 4.17676 3.72559 4.06738C3.62988 3.95801 3.57975 3.81673 3.5752 3.64355C3.5752 3.45215 3.63216 3.30632 3.74609 3.20605C3.86003 3.10124 3.97624 3.02832 4.09473 2.9873C4.40462 2.87337 4.72819 2.78678 5.06543 2.72754C5.40267 2.66829 5.74902 2.63867 6.10449 2.63867C6.94759 2.63867 7.736 2.7959 8.46973 3.11035C9.20801 3.4248 9.85742 3.8623 10.418 4.42285C10.9785 4.9834 11.416 5.63281 11.7305 6.37109C12.0495 7.10938 12.209 7.90007 12.209 8.74316C12.209 9.58626 12.0495 10.377 11.7305 11.1152C11.416 11.849 10.9785 12.4961 10.418 13.0566C9.85742 13.6172 9.20801 14.0547 8.46973 14.3691C7.736 14.6836 6.94759 14.8408 6.10449 14.8408ZM4.33398 3.52734L6.76758 5.94043C6.83138 5.99967 6.87923 6.06803 6.91113 6.14551C6.94303 6.22298 6.95898 6.30501 6.95898 6.3916C6.95898 6.57845 6.89518 6.73568 6.76758 6.86328C6.63997 6.99089 6.48503 7.05469 6.30273 7.05469C6.125 7.05469 5.97005 6.99316 5.83789 6.87012L3.02832 4.04004C2.9554 3.96712 2.90299 3.88965 2.87109 3.80762C2.83919 3.72559 2.82324 3.639 2.82324 3.54785C2.82324 3.35645 2.8916 3.1901 3.02832 3.04883L5.83789 0.198242C5.97005 0.0660807 6.125 0 6.30273 0C6.48958 0 6.64453 0.0660807 6.76758 0.198242C6.89518 0.330404 6.95898 0.489909 6.95898 0.676758C6.95898 0.767904 6.94303 0.852214 6.91113 0.929688C6.88379 1.00716 6.83822 1.07552 6.77441 1.13477L4.33398 3.52734Z" fill="#333333"/>
</svg>
