<svg width="18" height="20" viewBox="0 0 18 20" fill="none" xmlns="http://www.w3.org/2000/svg">
<path d="M15.3457 19.292H6.63574C5.88574 19.292 5.32031 19.1074 4.93945 18.7383C4.56445 18.375 4.37695 17.8096 4.37695 17.042V8.34961C4.37695 7.57617 4.56445 7.00781 4.93945 6.64453C5.32031 6.27539 5.88574 6.09082 6.63574 6.09082H15.3457C16.1016 6.09082 16.667 6.27539 17.042 6.64453C17.417 7.00781 17.6045 7.57617 17.6045 8.34961V17.042C17.6045 17.8096 17.417 18.375 17.042 18.7383C16.667 19.1074 16.1016 19.292 15.3457 19.292ZM15.3193 17.877C15.624 17.877 15.8438 17.8096 15.9785 17.6748C16.1191 17.5459 16.1895 17.3262 16.1895 17.0156V8.36719C16.1895 8.05664 16.1191 7.83691 15.9785 7.70801C15.8438 7.57324 15.624 7.50586 15.3193 7.50586H6.66211C6.36328 7.50586 6.14355 7.57324 6.00293 7.70801C5.8623 7.83691 5.79199 8.05664 5.79199 8.36719V17.0156C5.79199 17.3262 5.8623 17.5459 6.00293 17.6748C6.14355 17.8096 6.36328 17.877 6.66211 17.877H15.3193ZM4.37695 3.95508V0.703125C4.37695 0.380859 4.47949 0.18457 4.68457 0.114258C4.88965 0.0380859 5.11523 0.0908203 5.36133 0.272461L7.57617 1.89844C7.76367 2.03906 7.85742 2.18262 7.85742 2.3291C7.85742 2.47559 7.76367 2.61914 7.57617 2.75977L5.36133 4.37695C5.11523 4.55859 4.88965 4.61426 4.68457 4.54395C4.47949 4.46777 4.37695 4.27148 4.37695 3.95508ZM5.2998 1.81055C5.44043 1.81055 5.56055 1.86035 5.66016 1.95996C5.76562 2.05957 5.81836 2.17676 5.81836 2.31152C5.81836 2.45215 5.76562 2.5752 5.66016 2.68066C5.56055 2.78027 5.44043 2.83008 5.2998 2.83008H4.20996C3.57129 2.83008 3.01758 2.96777 2.54883 3.24316C2.08594 3.5127 1.72852 3.8877 1.47656 4.36816C1.22461 4.84863 1.09863 5.39941 1.09863 6.02051V7.33887C1.09863 7.48535 1.0459 7.61426 0.94043 7.72559C0.829102 7.83105 0.697266 7.88379 0.544922 7.88379C0.398438 7.88379 0.272461 7.83105 0.166992 7.72559C0.0556641 7.61426 0 7.48535 0 7.33887V6.02051C0 5.18262 0.175781 4.44727 0.527344 3.81445C0.873047 3.18164 1.3623 2.68945 1.99512 2.33789C2.62207 1.98633 3.35742 1.81055 4.20117 1.81055H5.2998Z" fill="#333333"/>
</svg>
