<svg width="18" height="20" viewBox="0 0 18 20" fill="none" xmlns="http://www.w3.org/2000/svg">
<path d="M2.25879 19.292C1.50879 19.292 0.943359 19.1074 0.5625 18.7383C0.1875 18.375 0 17.8096 0 17.042V8.34961C0 7.57617 0.1875 7.00781 0.5625 6.64453C0.943359 6.27539 1.50879 6.09082 2.25879 6.09082H10.9688C11.7246 6.09082 12.29 6.27539 12.665 6.64453C13.04 7.00781 13.2275 7.57617 13.2275 8.34961V17.042C13.2275 17.8096 13.04 18.375 12.665 18.7383C12.29 19.1074 11.7246 19.292 10.9688 19.292H2.25879ZM2.28516 17.877H10.9424C11.2471 17.877 11.4668 17.8096 11.6016 17.6748C11.7422 17.5459 11.8125 17.3262 11.8125 17.0156V8.36719C11.8125 8.05664 11.7422 7.83691 11.6016 7.70801C11.4668 7.57324 11.2471 7.50586 10.9424 7.50586H2.28516C1.98633 7.50586 1.7666 7.57324 1.62598 7.70801C1.48535 7.83691 1.41504 8.05664 1.41504 8.36719V17.0156C1.41504 17.3262 1.48535 17.5459 1.62598 17.6748C1.7666 17.8096 1.98633 17.877 2.28516 17.877ZM13.2275 3.95508C13.2275 4.27148 13.125 4.46777 12.9199 4.54395C12.7148 4.61426 12.4893 4.55859 12.2432 4.37695L10.0283 2.75977C9.84082 2.61914 9.74707 2.47559 9.74707 2.3291C9.75293 2.18262 9.84668 2.03906 10.0283 1.89844L12.2432 0.272461C12.4893 0.0908203 12.7148 0.0380859 12.9199 0.114258C13.125 0.18457 13.2275 0.380859 13.2275 0.703125V3.95508ZM12.3047 1.81055H13.4121C14.25 1.81055 14.9854 1.98633 15.6182 2.33789C16.251 2.68945 16.7402 3.18164 17.0859 3.81445C17.4375 4.44727 17.6133 5.18262 17.6133 6.02051V7.33887C17.6133 7.48535 17.5576 7.61426 17.4463 7.72559C17.3408 7.83105 17.2119 7.88379 17.0596 7.88379C16.9131 7.88379 16.7842 7.83105 16.6729 7.72559C16.5674 7.61426 16.5146 7.48535 16.5146 7.33887V6.02051C16.5146 5.39941 16.3857 4.84863 16.1279 4.36816C15.876 3.8877 15.5156 3.5127 15.0469 3.24316C14.584 2.96777 14.0361 2.83008 13.4033 2.83008H12.3047C12.1641 2.83008 12.0439 2.78027 11.9443 2.68066C11.8447 2.5752 11.7949 2.45215 11.7949 2.31152C11.7949 2.17676 11.8447 2.05957 11.9443 1.95996C12.0439 1.86035 12.1641 1.81055 12.3047 1.81055Z" fill="#333333"/>
</svg>
