<svg width="18" height="18" viewBox="0 0 18 18" fill="none" xmlns="http://www.w3.org/2000/svg">
<path d="M0 7.01367C0 6.04688 0.181641 5.1416 0.544922 4.29785C0.908203 3.44824 1.41211 2.70117 2.05664 2.05664C2.70117 1.41211 3.44531 0.908203 4.28906 0.544922C5.13867 0.181641 6.04688 0 7.01367 0C7.98047 0 8.88574 0.181641 9.72949 0.544922C10.5791 0.908203 11.3262 1.41211 11.9707 2.05664C12.6152 2.70117 13.1191 3.44824 13.4824 4.29785C13.8457 5.1416 14.0273 6.04688 14.0273 7.01367C14.0273 7.81641 13.8984 8.57812 13.6406 9.29883C13.3887 10.0195 13.0371 10.6729 12.5859 11.2588L16.8838 15.583C16.9775 15.6768 17.0479 15.7852 17.0947 15.9082C17.1475 16.0312 17.1738 16.1631 17.1738 16.3037C17.1738 16.4971 17.1299 16.6729 17.042 16.8311C16.96 16.9893 16.8428 17.1123 16.6904 17.2002C16.5381 17.2939 16.3623 17.3408 16.1631 17.3408C16.0225 17.3408 15.8877 17.3145 15.7588 17.2617C15.6357 17.2148 15.5215 17.1416 15.416 17.042L11.0918 12.709C10.5176 13.1191 9.88477 13.4414 9.19336 13.6758C8.50195 13.9102 7.77539 14.0273 7.01367 14.0273C6.04688 14.0273 5.13867 13.8457 4.28906 13.4824C3.44531 13.1191 2.70117 12.6152 2.05664 11.9707C1.41211 11.3262 0.908203 10.582 0.544922 9.73828C0.181641 8.88867 0 7.98047 0 7.01367ZM1.50293 7.01367C1.50293 7.77539 1.64355 8.49023 1.9248 9.1582C2.21191 9.82031 2.60742 10.4033 3.11133 10.9072C3.62109 11.4111 4.20703 11.8066 4.86914 12.0938C5.53711 12.3809 6.25195 12.5244 7.01367 12.5244C7.77539 12.5244 8.4873 12.3809 9.14941 12.0938C9.81738 11.8066 10.4033 11.4111 10.9072 10.9072C11.4111 10.4033 11.8066 9.82031 12.0938 9.1582C12.3809 8.49023 12.5244 7.77539 12.5244 7.01367C12.5244 6.25195 12.3809 5.54004 12.0938 4.87793C11.8066 4.20996 11.4111 3.62402 10.9072 3.12012C10.4033 2.61035 9.81738 2.21484 9.14941 1.93359C8.4873 1.64648 7.77539 1.50293 7.01367 1.50293C6.25195 1.50293 5.53711 1.64648 4.86914 1.93359C4.20703 2.21484 3.62109 2.61035 3.11133 3.12012C2.60742 3.62402 2.21191 4.20996 1.9248 4.87793C1.64355 5.54004 1.50293 6.25195 1.50293 7.01367Z" fill="white"/>
</svg>
