<svg width="7" height="13" viewBox="0 0 7 13" fill="none" xmlns="http://www.w3.org/2000/svg">
<path d="M5.18555 11.9355C5.01367 12.0059 4.8418 12.0273 4.66992 12C4.50195 11.9766 4.34961 11.9141 4.21289 11.8125C4.07617 11.7109 3.97266 11.5762 3.90234 11.4082L1.99219 6.67969L2.78906 6.9375L0.832031 9.11719C0.730469 9.23828 0.613281 9.30078 0.480469 9.30469C0.351562 9.30469 0.238281 9.26172 0.140625 9.17578C0.046875 9.08594 0.00195312 8.96094 0.00585938 8.80078L0.111328 0.457031C0.115234 0.316406 0.160156 0.205078 0.246094 0.123047C0.332031 0.0410156 0.433594 0.00195312 0.550781 0.00585938C0.671875 0.00585938 0.783203 0.0566406 0.884766 0.158203L6.76172 6.14648C6.87109 6.25586 6.92383 6.375 6.91992 6.50391C6.91602 6.63281 6.86719 6.74219 6.77344 6.83203C6.68359 6.91797 6.56445 6.95508 6.41602 6.94336L3.36914 6.76758L3.75 6.04102L5.71875 10.6641C5.79297 10.832 5.81641 11 5.78906 11.168C5.76172 11.3398 5.69531 11.4941 5.58984 11.6309C5.48828 11.7676 5.35352 11.8691 5.18555 11.9355Z" fill="white"/>
</svg>
