<svg width="16" height="20" viewBox="0 0 16 20" fill="none" xmlns="http://www.w3.org/2000/svg">
<path d="M4.81543 4.10449C4.63379 4.10449 4.48145 4.0459 4.3584 3.92871C4.24121 3.81152 4.18262 3.66504 4.18262 3.48926C4.18262 3.31934 4.25293 3.16406 4.39355 3.02344L7.28516 0.228516C7.37891 0.140625 7.46387 0.0820312 7.54004 0.0527344C7.62207 0.0175781 7.70703 0 7.79492 0C7.88867 0 7.97363 0.0175781 8.0498 0.0527344C8.13184 0.0820312 8.2168 0.140625 8.30469 0.228516L11.2051 3.02344C11.3398 3.16406 11.4072 3.31934 11.4072 3.48926C11.4072 3.66504 11.3457 3.81152 11.2227 3.92871C11.0996 4.0459 10.9473 4.10449 10.7656 4.10449C10.5723 4.10449 10.4141 4.03418 10.291 3.89355L8.9375 2.44336L7.79492 1.23047L6.66113 2.44336L5.29883 3.89355C5.17578 4.03418 5.01465 4.10449 4.81543 4.10449ZM7.79492 12.8584C7.60742 12.8584 7.44336 12.791 7.30273 12.6562C7.16797 12.5215 7.10059 12.3633 7.10059 12.1816V3.23438L7.20605 0.870117C7.21777 0.706055 7.2793 0.568359 7.39062 0.457031C7.50195 0.339844 7.63672 0.28125 7.79492 0.28125C7.95898 0.28125 8.09668 0.339844 8.20801 0.457031C8.31934 0.568359 8.38086 0.706055 8.39258 0.870117L8.49805 3.23438V12.1816C8.49805 12.3633 8.42773 12.5215 8.28711 12.6562C8.15234 12.791 7.98828 12.8584 7.79492 12.8584ZM3.67285 19.7402C2.49512 19.7402 1.58691 19.4209 0.948242 18.7822C0.31543 18.1494 -0.000976562 17.2441 -0.000976562 16.0664V9.29883C-0.000976562 8.11523 0.31543 7.20703 0.948242 6.57422C1.58691 5.94141 2.49512 5.625 3.67285 5.625H5.44824V7.04004H3.67285C2.95215 7.04004 2.39551 7.23633 2.00293 7.62891C1.61035 8.01562 1.41406 8.57227 1.41406 9.29883V16.0664C1.41406 16.7871 1.61035 17.3438 2.00293 17.7363C2.39551 18.1289 2.95215 18.3252 3.67285 18.3252H11.917C12.6436 18.3252 13.2031 18.1289 13.5957 17.7363C13.9883 17.3438 14.1846 16.7871 14.1846 16.0664V9.29883C14.1846 8.57227 13.9883 8.01562 13.5957 7.62891C13.2031 7.23633 12.6436 7.04004 11.917 7.04004H10.1416V5.625H11.917C13.1006 5.625 14.0088 5.94141 14.6416 6.57422C15.2803 7.20703 15.5996 8.11523 15.5996 9.29883V16.0664C15.5996 17.2441 15.2803 18.1494 14.6416 18.7822C14.0088 19.4209 13.1006 19.7402 11.917 19.7402H3.67285Z" fill="#CCCCCC"/>
</svg>
