<svg width="15" height="18" viewBox="0 0 15 18" fill="none" xmlns="http://www.w3.org/2000/svg">
<path d="M14.2568 0L14.4473 4.03711H13.9648C13.8717 3.32617 13.7448 2.81836 13.584 2.51367C13.3216 2.02279 12.9704 1.66309 12.5303 1.43457C12.0986 1.19759 11.5273 1.0791 10.8164 1.0791H8.3916V14.2314C8.3916 15.2894 8.50586 15.9495 8.73438 16.2119C9.05599 16.5674 9.55111 16.7451 10.2197 16.7451H10.8164V17.2148H3.5166V16.7451H4.12598C4.85384 16.7451 5.37012 16.5251 5.6748 16.085C5.861 15.8141 5.9541 15.1963 5.9541 14.2314V1.0791H3.88477C3.08073 1.0791 2.50944 1.13835 2.1709 1.25684C1.73079 1.41764 1.35417 1.72656 1.04102 2.18359C0.727865 2.64062 0.541667 3.25846 0.482422 4.03711H0L0.203125 0H14.2568Z" fill="#333333"/>
</svg>
