<svg width="17" height="17" viewBox="0 0 17 17" fill="none" xmlns="http://www.w3.org/2000/svg">
<g style="mix-blend-mode:difference">
<rect width="5" height="1" transform="matrix(-1 0 0 1 17 6)" fill="#CCCCCC"/>
<rect width="5" height="5" rx="1" transform="matrix(-1 0 0 1 11 6)" fill="#CCCCCC"/>
<rect width="5" height="5" rx="1" transform="matrix(-1 0 0 1 11 12)" fill="#CCCCCC"/>
<rect width="5" height="5" rx="1" transform="matrix(-1 0 0 1 5 6)" fill="#CCCCCC"/>
<rect width="5" height="5" rx="1" transform="matrix(-1 0 0 1 5 12)" fill="#CCCCCC"/>
<rect width="4" height="1" transform="matrix(-1 0 0 1 17 8)" fill="#CCCCCC"/>
<rect width="5" height="1" transform="matrix(-1 0 0 1 17 0)" fill="#CCCCCC"/>
<rect width="5" height="5" rx="1" transform="matrix(-1 0 0 1 11 0)" fill="#CCCCCC"/>
<rect width="5" height="5" rx="1" transform="matrix(-1 0 0 1 5 0)" fill="#CCCCCC"/>
<rect width="4" height="1" transform="matrix(-1 0 0 1 17 2)" fill="#CCCCCC"/>
</g>
</svg>
