<svg width="24" height="20" viewBox="0 0 24 20" fill="none" xmlns="http://www.w3.org/2000/svg">
<rect x="0.75" y="0.75" width="22.5" height="18.5" rx="3.25" stroke="#333333" stroke-width="1.5"/>
<path d="M4.06055 14V5.54492H5.37305V9.11914H9.70898V5.54492H11.0273V14H9.70898V10.2559H5.37305V14H4.06055ZM13.1543 14V5.54492H16.207C17.0469 5.54492 17.7637 5.71094 18.3574 6.04297C18.9512 6.375 19.4043 6.85352 19.7168 7.47852C20.0332 8.10352 20.1914 8.85938 20.1914 9.74609V9.75781C20.1914 10.6523 20.0332 11.416 19.7168 12.0488C19.4043 12.6816 18.9512 13.166 18.3574 13.502C17.7676 13.834 17.0508 14 16.207 14H13.1543ZM14.4668 12.8633H16.0605C16.6504 12.8633 17.1523 12.7422 17.5664 12.5C17.9844 12.2578 18.3008 11.9062 18.5156 11.4453C18.7344 10.9844 18.8438 10.4277 18.8438 9.77539V9.76367C18.8438 9.11523 18.7324 8.56055 18.5098 8.09961C18.291 7.63867 17.9746 7.28711 17.5605 7.04492C17.1465 6.80273 16.6465 6.68164 16.0605 6.68164H14.4668V12.8633Z" fill="#333333"/>
</svg>
