<svg width="21" height="16" viewBox="0 0 21 16" fill="none" xmlns="http://www.w3.org/2000/svg">
<path d="M15.6445 0.544922C15.6445 0.369141 15.6914 0.234375 15.7852 0.140625C15.8848 0.046875 16.0254 0 16.207 0C16.2891 0 16.3682 0.0146484 16.4443 0.0439453C16.5264 0.0673828 16.5996 0.105469 16.6641 0.158203L19.9863 2.91797C20.127 3.04102 20.1973 3.18164 20.1973 3.33984C20.1973 3.49805 20.127 3.63574 19.9863 3.75293L16.6641 6.50391C16.5996 6.55664 16.5264 6.59766 16.4443 6.62695C16.3682 6.65625 16.2891 6.6709 16.207 6.6709C16.0254 6.6709 15.8848 6.62402 15.7852 6.53027C15.6914 6.43066 15.6445 6.29297 15.6445 6.11719V0.544922ZM0 12.4629C0 12.2461 0.0732422 12.0703 0.219727 11.9355C0.37207 11.8008 0.568359 11.7334 0.808594 11.7334H2.85645C3.30176 11.7334 3.69434 11.6426 4.03418 11.4609C4.37988 11.2793 4.74316 10.9658 5.12402 10.5205L10.4414 4.30664C10.9688 3.69141 11.4785 3.26367 11.9707 3.02344C12.4629 2.7832 13.0752 2.66309 13.8076 2.66309H16.9365C17.1416 2.66309 17.3145 2.73633 17.4551 2.88281C17.6016 3.02344 17.6748 3.19629 17.6748 3.40137C17.6748 3.60059 17.6016 3.77344 17.4551 3.91992C17.3145 4.06055 17.1416 4.13086 16.9365 4.13086H13.8516C13.5293 4.13086 13.2363 4.17188 12.9727 4.25391C12.7148 4.33008 12.4658 4.45605 12.2256 4.63184C11.9912 4.80762 11.748 5.04199 11.4961 5.33496L6.16992 11.5488C5.63672 12.1641 5.12402 12.5918 4.63184 12.832C4.14551 13.0723 3.53906 13.1924 2.8125 13.1924H0.808594C0.568359 13.1924 0.37207 13.125 0.219727 12.9902C0.0732422 12.8555 0 12.6797 0 12.4629ZM15.6445 15.3809V9.80859C15.6445 9.63281 15.6914 9.49805 15.7852 9.4043C15.8848 9.30469 16.0254 9.25488 16.207 9.25488C16.2891 9.25488 16.3682 9.26953 16.4443 9.29883C16.5264 9.32812 16.5996 9.36914 16.6641 9.42188L19.9863 12.1729C20.127 12.29 20.1973 12.4277 20.1973 12.5859C20.1973 12.7441 20.127 12.8848 19.9863 13.0078L16.6641 15.7676C16.5996 15.8203 16.5264 15.8584 16.4443 15.8818C16.3682 15.9111 16.2891 15.9258 16.207 15.9258C16.0254 15.9258 15.8848 15.8789 15.7852 15.7852C15.6914 15.6914 15.6445 15.5566 15.6445 15.3809ZM0 3.46289C0 3.24609 0.0732422 3.07031 0.219727 2.93555C0.37207 2.80078 0.568359 2.7334 0.808594 2.7334H2.8125C3.53906 2.7334 4.14551 2.85352 4.63184 3.09375C5.12402 3.33398 5.63672 3.76172 6.16992 4.37695L11.4961 10.5908C11.748 10.8838 11.9912 11.1182 12.2256 11.2939C12.4658 11.4697 12.7148 11.5986 12.9727 11.6807C13.2363 11.7568 13.5293 11.7949 13.8516 11.7949H16.9365C17.1416 11.7949 17.3145 11.8682 17.4551 12.0146C17.6016 12.1553 17.6748 12.3252 17.6748 12.5244C17.6748 12.7295 17.6016 12.9053 17.4551 13.0518C17.3145 13.1924 17.1416 13.2627 16.9365 13.2627H13.8076C13.0752 13.2627 12.4629 13.1426 11.9707 12.9023C11.4785 12.6621 10.9688 12.2344 10.4414 11.6191L5.12402 5.40527C4.74316 4.95996 4.37988 4.64648 4.03418 4.46484C3.69434 4.2832 3.30176 4.19238 2.85645 4.19238H0.808594C0.568359 4.19238 0.37207 4.125 0.219727 3.99023C0.0732422 3.85547 0 3.67969 0 3.46289Z" fill="#333333"/>
</svg>
