<svg width="14" height="14" viewBox="0 0 14 14" fill="none" xmlns="http://www.w3.org/2000/svg">
<path d="M6.97266 13.5625C6.4987 13.5625 6.05208 13.3984 5.63281 13.0703C5.2181 12.7422 4.85124 12.2819 4.53223 11.6895C4.21777 11.097 3.9694 10.402 3.78711 9.60449C3.60938 8.80241 3.52051 7.92969 3.52051 6.98633C3.52051 6.04297 3.60938 5.17025 3.78711 4.36816C3.9694 3.56152 4.21777 2.86198 4.53223 2.26953C4.84668 1.67253 5.21126 1.20996 5.62598 0.881836C6.04525 0.553711 6.49414 0.389648 6.97266 0.389648C7.45117 0.389648 7.89779 0.553711 8.3125 0.881836C8.73177 1.20996 9.09863 1.67253 9.41309 2.26953C9.7321 2.86198 9.98047 3.56152 10.1582 4.36816C10.3359 5.17025 10.4248 6.04297 10.4248 6.98633C10.4248 7.92969 10.3337 8.80241 10.1514 9.60449C9.97363 10.402 9.72526 11.097 9.40625 11.6895C9.0918 12.2819 8.72493 12.7422 8.30566 13.0703C7.89095 13.3984 7.44661 13.5625 6.97266 13.5625ZM6.97266 12.7285C7.30534 12.7285 7.62435 12.5736 7.92969 12.2637C8.23503 11.9583 8.50618 11.5391 8.74316 11.0059C8.98014 10.4681 9.16699 9.85514 9.30371 9.16699C9.44043 8.47884 9.50879 7.75195 9.50879 6.98633C9.50879 6.21159 9.44043 5.47786 9.30371 4.78516C9.16699 4.08789 8.98014 3.47266 8.74316 2.93945C8.50618 2.40625 8.23503 1.98698 7.92969 1.68164C7.62435 1.37174 7.30534 1.2168 6.97266 1.2168C6.63997 1.2168 6.32096 1.37174 6.01562 1.68164C5.71029 1.98698 5.43913 2.40625 5.20215 2.93945C4.96517 3.47266 4.77832 4.08789 4.6416 4.78516C4.50488 5.47786 4.43652 6.21159 4.43652 6.98633C4.43652 7.75195 4.50488 8.47884 4.6416 9.16699C4.77832 9.85514 4.96517 10.4681 5.20215 11.0059C5.43913 11.5391 5.71029 11.9583 6.01562 12.2637C6.32096 12.5736 6.63997 12.7285 6.97266 12.7285ZM6.97266 13.7471C6.84961 13.7471 6.74479 13.7015 6.6582 13.6104C6.57161 13.5238 6.52832 13.4189 6.52832 13.2959V0.710938C6.52832 0.587891 6.57161 0.483073 6.6582 0.396484C6.74479 0.305339 6.84961 0.259766 6.97266 0.259766C7.0957 0.259766 7.20052 0.305339 7.28711 0.396484C7.37826 0.483073 7.42383 0.587891 7.42383 0.710938V13.2959C7.42383 13.4189 7.37826 13.5238 7.28711 13.6104C7.20052 13.7015 7.0957 13.7471 6.97266 13.7471ZM2.7207 11.5527C2.62044 11.6302 2.51107 11.6735 2.39258 11.6826C2.27865 11.6872 2.17611 11.6462 2.08496 11.5596C1.99837 11.473 1.9528 11.3704 1.94824 11.252C1.94824 11.1289 1.99609 11.0241 2.0918 10.9375C2.39714 10.6595 2.79818 10.4157 3.29492 10.2061C3.79167 9.99642 4.35221 9.83464 4.97656 9.7207C5.60547 9.60221 6.27083 9.54297 6.97266 9.54297C7.67448 9.54297 8.33984 9.60221 8.96875 9.7207C9.59766 9.83464 10.1582 9.99642 10.6504 10.2061C11.1471 10.4157 11.5482 10.6595 11.8535 10.9375C11.9492 11.0241 11.9948 11.1289 11.9902 11.252C11.9902 11.3704 11.9469 11.473 11.8604 11.5596C11.7692 11.6462 11.6644 11.6872 11.5459 11.6826C11.432 11.6735 11.3249 11.6302 11.2246 11.5527C10.9193 11.3112 10.5547 11.1084 10.1309 10.9443C9.70703 10.7757 9.22852 10.6504 8.69531 10.5684C8.16667 10.4818 7.59245 10.4385 6.97266 10.4385C6.35286 10.4385 5.77637 10.4818 5.24316 10.5684C4.71452 10.6504 4.23828 10.7757 3.81445 10.9443C3.39062 11.1084 3.02604 11.3112 2.7207 11.5527ZM0.820312 7.41699C0.697266 7.41699 0.590169 7.3737 0.499023 7.28711C0.412435 7.20052 0.369141 7.0957 0.369141 6.97266C0.369141 6.84961 0.412435 6.74479 0.499023 6.6582C0.590169 6.56706 0.697266 6.52148 0.820312 6.52148H13.2617C13.3848 6.52148 13.4896 6.56706 13.5762 6.6582C13.6673 6.74479 13.7129 6.84961 13.7129 6.97266C13.7129 7.0957 13.6673 7.20052 13.5762 7.28711C13.4896 7.3737 13.3848 7.41699 13.2617 7.41699H0.820312ZM6.97266 4.43652C6.27083 4.43652 5.60547 4.37728 4.97656 4.25879C4.35221 4.1403 3.79167 3.97624 3.29492 3.7666C2.79818 3.55697 2.39714 3.31543 2.0918 3.04199C1.99609 2.9554 1.94824 2.85286 1.94824 2.73438C1.9528 2.61133 1.99837 2.50651 2.08496 2.41992C2.17611 2.33333 2.27865 2.29232 2.39258 2.29688C2.51107 2.30143 2.62044 2.34473 2.7207 2.42676C3.02604 2.66829 3.39062 2.87337 3.81445 3.04199C4.23828 3.20605 4.71452 3.33138 5.24316 3.41797C5.77637 3.5 6.35286 3.54102 6.97266 3.54102C7.59245 3.54102 8.16667 3.5 8.69531 3.41797C9.22852 3.33138 9.70703 3.20605 10.1309 3.04199C10.5547 2.87337 10.9193 2.66829 11.2246 2.42676C11.3249 2.34473 11.432 2.30143 11.5459 2.29688C11.6644 2.29232 11.7692 2.33333 11.8604 2.41992C11.9469 2.50651 11.9902 2.61133 11.9902 2.73438C11.9948 2.85286 11.9492 2.9554 11.8535 3.04199C11.5482 3.31543 11.1471 3.55697 10.6504 3.7666C10.1582 3.97624 9.59766 4.1403 8.96875 4.25879C8.33984 4.37728 7.67448 4.43652 6.97266 4.43652ZM6.97266 13.9453C6.01107 13.9453 5.10872 13.763 4.26562 13.3984C3.42253 13.0384 2.68197 12.5394 2.04395 11.9014C1.40592 11.2633 0.904622 10.5228 0.540039 9.67969C0.180013 8.83659 0 7.93424 0 6.97266C0 6.01107 0.180013 5.10872 0.540039 4.26562C0.904622 3.42253 1.40592 2.68197 2.04395 2.04395C2.68197 1.40137 3.42253 0.900065 4.26562 0.540039C5.10872 0.180013 6.01107 0 6.97266 0C7.93424 0 8.83659 0.180013 9.67969 0.540039C10.5228 0.900065 11.2633 1.40137 11.9014 2.04395C12.5394 2.68197 13.0384 3.42253 13.3984 4.26562C13.763 5.10872 13.9453 6.01107 13.9453 6.97266C13.9453 7.93424 13.763 8.83659 13.3984 9.67969C13.0384 10.5228 12.5394 11.2633 11.9014 11.9014C11.2633 12.5394 10.5228 13.0384 9.67969 13.3984C8.83659 13.763 7.93424 13.9453 6.97266 13.9453ZM6.97266 13.0156C7.80664 13.0156 8.58822 12.8584 9.31738 12.5439C10.0465 12.2295 10.6891 11.7965 11.2451 11.2451C11.8011 10.6891 12.234 10.0465 12.5439 9.31738C12.8584 8.58822 13.0156 7.80664 13.0156 6.97266C13.0156 6.13867 12.8584 5.3571 12.5439 4.62793C12.234 3.89421 11.8011 3.25163 11.2451 2.7002C10.6891 2.14421 10.0465 1.71126 9.31738 1.40137C8.58822 1.08691 7.80664 0.929688 6.97266 0.929688C6.13867 0.929688 5.3571 1.08691 4.62793 1.40137C3.89876 1.71126 3.25618 2.14421 2.7002 2.7002C2.14421 3.25163 1.70898 3.89421 1.39453 4.62793C1.08464 5.3571 0.929688 6.13867 0.929688 6.97266C0.929688 7.80664 1.08464 8.58822 1.39453 9.31738C1.70898 10.0465 2.14421 10.6891 2.7002 11.2451C3.25618 11.7965 3.89876 12.2295 4.62793 12.5439C5.3571 12.8584 6.13867 13.0156 6.97266 13.0156Z" fill="#333333"/>
</svg>
