<svg width="48" height="17" viewBox="0 0 48 17" fill="none" xmlns="http://www.w3.org/2000/svg">
<path d="M8.85898 9.86096C10.1019 9.55856 11.0658 8.99949 11.7506 8.18364C12.4353 7.3679 12.7778 6.32725 12.7778 5.0618C12.7778 3.41433 12.2236 2.15902 11.1153 1.2953C10.0068 0.431805 8.44726 0 6.43642 0H0.190005C0.0632954 0 0 0.0557514 0 0.167135V16.5225C0 16.6499 0.0632954 16.7135 0.190005 16.7135H2.68382C2.81041 16.7135 2.87382 16.6499 2.87382 16.5225V10.1475H5.79515L9.809 16.5941C9.81684 16.626 9.84059 16.6538 9.88026 16.6777C9.9198 16.7015 9.95935 16.7135 9.99901 16.7135H13.0153C13.0866 16.7135 13.1301 16.6937 13.146 16.6538C13.1618 16.614 13.1499 16.5623 13.1103 16.4986L8.85898 9.86096ZM2.87382 7.9986V2.14888H6.60267C7.67929 2.14888 8.50664 2.39767 9.08461 2.89501C9.66235 3.39248 9.95151 4.13062 9.95151 5.10955C9.95151 6.08848 9.65261 6.81492 9.05492 7.28827C8.457 7.76186 7.66349 7.9986 6.67392 7.9986H2.87382ZM37.146 4.60815L30.4958 16.5941C30.4878 16.626 30.4641 16.6538 30.4245 16.6777C30.3849 16.7015 30.3453 16.7135 30.3058 16.7135H27.1945C27.139 16.7135 27.0974 16.7015 27.0698 16.6777C27.042 16.6538 27.0202 16.6101 27.0045 16.5464L25.1044 4.58427C25.0807 4.47289 25.1282 4.41714 25.2469 4.41714H27.6695C27.7328 4.41714 27.7782 4.42716 27.806 4.44698C27.8337 4.46692 27.8515 4.50476 27.8595 4.56039L29.0945 14.1826L34.1534 4.60815C34.185 4.52864 34.2286 4.47683 34.284 4.45295C34.3315 4.42907 34.375 4.41714 34.4146 4.41714H37.0272C37.0826 4.41714 37.1222 4.43707 37.146 4.47683C37.1697 4.5167 37.1697 4.56039 37.146 4.60815ZM47.2519 7.27037C46.7768 6.2598 46.094 5.48381 45.2034 4.94242C44.3127 4.40126 43.2419 4.13062 41.9911 4.13062C40.7719 4.13062 39.7129 4.39923 38.8144 4.93645C37.9158 5.47367 37.2271 6.22983 36.7481 7.20471C36.2691 8.1797 36.0297 9.3118 36.0297 10.6011C36.0297 11.8588 36.263 12.9689 36.7303 13.9319C37.1974 14.8949 37.8862 15.647 38.7966 16.1882C39.707 16.7294 40.8036 17 42.0861 17C43.1626 17 44.1068 16.809 44.9184 16.427C45.7298 16.0449 46.3731 15.5256 46.8481 14.869C47.3231 14.2124 47.612 13.4743 47.715 12.6545C47.7227 12.6067 47.7091 12.567 47.6734 12.5351C47.6378 12.5034 47.5962 12.4874 47.5487 12.4874H45.1262C45.039 12.4874 44.9837 12.5351 44.9599 12.6306C44.6115 14.2542 43.6694 15.066 42.1336 15.066C41.1123 15.066 40.3303 14.7397 39.7882 14.0871C39.2459 13.4345 38.951 12.4237 38.9035 11.0548H47.8337C47.8812 11.0548 47.9208 11.0389 47.9525 11.007C47.9841 10.9753 48 10.9354 48 10.8876C47.9762 9.48693 47.7269 8.28117 47.2519 7.27037ZM38.9748 9.19242C39.1173 8.17373 39.4457 7.39393 39.9604 6.85253C40.475 6.31137 41.1598 6.04073 42.0148 6.04073C42.6086 6.04073 43.1172 6.18208 43.5408 6.46454C43.9642 6.74711 44.2907 7.12711 44.5205 7.60464C44.7501 8.08216 44.8807 8.6115 44.9124 9.19242H38.9748ZM22.5987 5.02001C21.7278 4.44304 20.6709 4.15449 19.428 4.15449C18.2642 4.15449 17.2251 4.40329 16.3107 4.90063C15.3963 5.3981 14.6482 6.0627 14.0663 6.89431C13.4844 7.72605 13.0786 8.64326 12.8491 9.64607C12.5641 10.8798 12.5541 12.0576 12.8194 13.1798C13.0846 14.302 13.6704 15.2193 14.5769 15.9315C15.4834 16.6439 16.7124 17 18.2642 17C19.7526 17 21.0033 16.628 22.0168 15.8838C23.0301 15.1398 23.7269 14.0712 24.1069 12.6784C24.1146 12.6227 24.1047 12.5769 24.0772 12.5411C24.0494 12.5053 24.0119 12.4874 23.9644 12.4874H21.5893C21.5418 12.4874 21.5021 12.5013 21.4706 12.5291C21.4389 12.5571 21.4151 12.5909 21.3993 12.6306C21.1459 13.4585 20.754 14.0712 20.2237 14.4691C19.6932 14.8671 19.048 15.066 18.288 15.066C17.1954 15.066 16.4275 14.6801 15.9842 13.908C15.5407 13.1361 15.3587 12.185 15.4379 11.0548H24.3206C24.4077 11.0548 24.4631 11.007 24.4869 10.9115C24.7719 9.61431 24.7461 8.45225 24.4097 7.42556C24.0732 6.39888 23.4695 5.59711 22.5987 5.02001ZM21.8507 9.19242H15.7468C16.0159 8.24536 16.4434 7.48346 17.0293 6.90625C17.6151 6.32928 18.3593 6.04073 19.2619 6.04073C19.8556 6.04073 20.3622 6.17802 20.7819 6.4526C21.2015 6.72718 21.5043 7.10323 21.6904 7.58076C21.8762 8.05829 21.9298 8.59551 21.8507 9.19242Z" fill="#CCCCCC"/>
</svg>
